solid Exported from Blender-3.4.1
facet normal 0.098017 -0.000000 0.995185
outer loop
vertex -0.000404 0.552045 0.309290
vertex -0.000404 -0.552045 0.309290
vertex 0.059879 -0.552045 0.303353
endloop
endfacet
facet normal 0.098017 -0.000000 0.995185
outer loop
vertex -0.000404 0.552045 0.309290
vertex 0.059879 -0.552045 0.303353
vertex 0.059879 0.552045 0.303353
endloop
endfacet
facet normal 0.290285 -0.000000 0.956940
outer loop
vertex 0.059879 0.552045 0.303353
vertex 0.059879 -0.552045 0.303353
vertex 0.117847 -0.552045 0.285769
endloop
endfacet
facet normal 0.290284 -0.000000 0.956940
outer loop
vertex 0.059879 0.552045 0.303353
vertex 0.117847 -0.552045 0.285769
vertex 0.117847 0.552045 0.285769
endloop
endfacet
facet normal 0.471396 -0.000000 0.881922
outer loop
vertex 0.117847 0.552045 0.285769
vertex 0.117847 -0.552045 0.285769
vertex 0.171269 -0.552045 0.257213
endloop
endfacet
facet normal 0.471397 -0.000000 0.881921
outer loop
vertex 0.117847 0.552045 0.285769
vertex 0.171269 -0.552045 0.257213
vertex 0.171269 0.552045 0.257214
endloop
endfacet
facet normal 0.634394 -0.000000 0.773010
outer loop
vertex 0.171269 0.552045 0.257214
vertex 0.171269 -0.552045 0.257213
vertex 0.218095 -0.552045 0.218785
endloop
endfacet
facet normal 0.634394 -0.000000 0.773010
outer loop
vertex 0.171269 0.552045 0.257214
vertex 0.218095 -0.552045 0.218785
vertex 0.218095 0.552045 0.218785
endloop
endfacet
facet normal 0.773010 -0.000000 0.634394
outer loop
vertex 0.218095 -0.552045 0.218785
vertex 0.256524 -0.552045 0.171959
vertex 0.218095 0.552045 0.218785
endloop
endfacet
facet normal 0.773010 -0.000000 0.634394
outer loop
vertex 0.256524 -0.552045 0.171959
vertex 0.256524 0.552045 0.171959
vertex 0.218095 0.552045 0.218785
endloop
endfacet
facet normal 0.881921 -0.000000 0.471397
outer loop
vertex 0.256524 0.552045 0.171959
vertex 0.256524 -0.552045 0.171959
vertex 0.285079 -0.552045 0.118536
endloop
endfacet
facet normal 0.881922 -0.000000 0.471396
outer loop
vertex 0.256524 0.552045 0.171959
vertex 0.285079 -0.552045 0.118536
vertex 0.285079 0.552045 0.118536
endloop
endfacet
facet normal 0.956940 0.000000 0.290284
outer loop
vertex 0.285079 0.552045 0.118536
vertex 0.285079 -0.552045 0.118536
vertex 0.302663 -0.552045 0.060569
endloop
endfacet
facet normal 0.956940 -0.000000 0.290284
outer loop
vertex 0.285079 0.552045 0.118536
vertex 0.302663 -0.552045 0.060569
vertex 0.302663 0.552045 0.060569
endloop
endfacet
facet normal 0.995185 0.000000 0.098017
outer loop
vertex 0.302663 0.552045 0.060569
vertex 0.302663 -0.552045 0.060569
vertex 0.308600 -0.552045 0.000285
endloop
endfacet
facet normal 0.995185 -0.000000 0.098017
outer loop
vertex 0.302663 0.552045 0.060569
vertex 0.308600 -0.552045 0.000285
vertex 0.308600 0.552045 0.000285
endloop
endfacet
facet normal 0.995185 0.000000 -0.098017
outer loop
vertex 0.308600 0.552045 0.000285
vertex 0.308600 -0.552045 0.000285
vertex 0.302663 -0.552045 -0.059999
endloop
endfacet
facet normal 0.995185 -0.000000 -0.098017
outer loop
vertex 0.308600 0.552045 0.000285
vertex 0.302663 -0.552045 -0.059999
vertex 0.302663 0.552045 -0.059999
endloop
endfacet
facet normal 0.956940 0.000000 -0.290284
outer loop
vertex 0.302663 0.552045 -0.059999
vertex 0.302663 -0.552045 -0.059999
vertex 0.285079 -0.552045 -0.117966
endloop
endfacet
facet normal 0.956940 0.000000 -0.290284
outer loop
vertex 0.302663 0.552045 -0.059999
vertex 0.285079 -0.552045 -0.117966
vertex 0.285079 0.552045 -0.117966
endloop
endfacet
facet normal 0.881921 0.000000 -0.471396
outer loop
vertex 0.285079 0.552045 -0.117966
vertex 0.285079 -0.552045 -0.117966
vertex 0.256524 -0.552045 -0.171389
endloop
endfacet
facet normal 0.881921 0.000000 -0.471396
outer loop
vertex 0.285079 0.552045 -0.117966
vertex 0.256524 -0.552045 -0.171389
vertex 0.256524 0.552045 -0.171389
endloop
endfacet
facet normal 0.773010 0.000000 -0.634394
outer loop
vertex 0.256524 -0.552045 -0.171389
vertex 0.218095 -0.552045 -0.218214
vertex 0.256524 0.552045 -0.171389
endloop
endfacet
facet normal 0.773010 0.000000 -0.634394
outer loop
vertex 0.218095 -0.552045 -0.218214
vertex 0.218095 0.552045 -0.218214
vertex 0.256524 0.552045 -0.171389
endloop
endfacet
facet normal 0.634394 0.000000 -0.773010
outer loop
vertex 0.171269 -0.552045 -0.256643
vertex 0.218095 0.552045 -0.218214
vertex 0.218095 -0.552045 -0.218214
endloop
endfacet
facet normal 0.634393 0.000000 -0.773010
outer loop
vertex 0.171269 0.552045 -0.256643
vertex 0.218095 0.552045 -0.218214
vertex 0.171269 -0.552045 -0.256643
endloop
endfacet
facet normal 0.471397 0.000000 -0.881921
outer loop
vertex 0.171269 0.552045 -0.256643
vertex 0.171269 -0.552045 -0.256643
vertex 0.117847 -0.552045 -0.285198
endloop
endfacet
facet normal 0.471396 0.000000 -0.881922
outer loop
vertex 0.171269 0.552045 -0.256643
vertex 0.117847 -0.552045 -0.285198
vertex 0.117847 0.552045 -0.285198
endloop
endfacet
facet normal 0.290284 0.000000 -0.956940
outer loop
vertex 0.117847 0.552045 -0.285198
vertex 0.117847 -0.552045 -0.285198
vertex 0.059879 -0.552045 -0.302782
endloop
endfacet
facet normal 0.290284 0.000000 -0.956940
outer loop
vertex 0.117847 0.552045 -0.285198
vertex 0.059879 -0.552045 -0.302782
vertex 0.059879 0.552045 -0.302782
endloop
endfacet
facet normal 0.098017 0.000000 -0.995185
outer loop
vertex 0.059879 0.552045 -0.302782
vertex 0.059879 -0.552045 -0.302782
vertex -0.000404 -0.552045 -0.308720
endloop
endfacet
facet normal 0.098017 0.000000 -0.995185
outer loop
vertex 0.059879 0.552045 -0.302782
vertex -0.000404 -0.552045 -0.308720
vertex -0.000404 0.552045 -0.308720
endloop
endfacet
facet normal -0.098017 0.000000 -0.995185
outer loop
vertex -0.000404 0.552045 -0.308720
vertex -0.000404 -0.552045 -0.308720
vertex -0.060688 -0.552045 -0.302782
endloop
endfacet
facet normal -0.098017 0.000000 -0.995185
outer loop
vertex -0.000404 0.552045 -0.308720
vertex -0.060688 -0.552045 -0.302782
vertex -0.060688 0.552045 -0.302782
endloop
endfacet
facet normal -0.290284 0.000000 -0.956940
outer loop
vertex -0.060688 0.552045 -0.302782
vertex -0.060688 -0.552045 -0.302782
vertex -0.118656 -0.552045 -0.285198
endloop
endfacet
facet normal -0.290284 0.000000 -0.956940
outer loop
vertex -0.060688 0.552045 -0.302782
vertex -0.118656 -0.552045 -0.285198
vertex -0.118656 0.552045 -0.285198
endloop
endfacet
facet normal -0.471396 0.000000 -0.881922
outer loop
vertex -0.118656 0.552045 -0.285198
vertex -0.118656 -0.552045 -0.285198
vertex -0.172079 -0.552045 -0.256643
endloop
endfacet
facet normal -0.471397 0.000000 -0.881921
outer loop
vertex -0.118656 0.552045 -0.285198
vertex -0.172079 -0.552045 -0.256643
vertex -0.172079 0.552045 -0.256643
endloop
endfacet
facet normal -0.634393 0.000000 -0.773010
outer loop
vertex -0.218904 -0.552045 -0.218214
vertex -0.172079 0.552045 -0.256643
vertex -0.172079 -0.552045 -0.256643
endloop
endfacet
facet normal -0.634394 0.000000 -0.773010
outer loop
vertex -0.218904 0.552045 -0.218214
vertex -0.172079 0.552045 -0.256643
vertex -0.218904 -0.552045 -0.218214
endloop
endfacet
facet normal -0.773011 0.000000 -0.634393
outer loop
vertex -0.257333 -0.552045 -0.171389
vertex -0.218904 0.552045 -0.218214
vertex -0.218904 -0.552045 -0.218214
endloop
endfacet
facet normal -0.773011 0.000000 -0.634393
outer loop
vertex -0.257333 -0.552045 -0.171389
vertex -0.257333 0.552045 -0.171389
vertex -0.218904 0.552045 -0.218214
endloop
endfacet
facet normal -0.881921 0.000000 -0.471397
outer loop
vertex -0.257333 0.552045 -0.171389
vertex -0.257333 -0.552045 -0.171389
vertex -0.285888 -0.552045 -0.117966
endloop
endfacet
facet normal -0.881921 0.000000 -0.471397
outer loop
vertex -0.257333 0.552045 -0.171389
vertex -0.285888 -0.552045 -0.117966
vertex -0.285888 0.552045 -0.117966
endloop
endfacet
facet normal -0.956940 0.000000 -0.290284
outer loop
vertex -0.285888 0.552045 -0.117966
vertex -0.285888 -0.552045 -0.117966
vertex -0.303472 -0.552045 -0.059999
endloop
endfacet
facet normal -0.956940 0.000000 -0.290284
outer loop
vertex -0.285888 0.552045 -0.117966
vertex -0.303472 -0.552045 -0.059999
vertex -0.303472 0.552045 -0.059999
endloop
endfacet
facet normal -0.995185 0.000000 -0.098017
outer loop
vertex -0.303472 0.552045 -0.059999
vertex -0.303472 -0.552045 -0.059999
vertex -0.309409 -0.552045 0.000285
endloop
endfacet
facet normal -0.995185 0.000000 -0.098017
outer loop
vertex -0.303472 0.552045 -0.059999
vertex -0.309409 -0.552045 0.000285
vertex -0.309409 0.552045 0.000285
endloop
endfacet
facet normal -0.995185 0.000000 0.098017
outer loop
vertex -0.309409 0.552045 0.000285
vertex -0.309409 -0.552045 0.000285
vertex -0.303472 -0.552045 0.060569
endloop
endfacet
facet normal -0.995185 0.000000 0.098017
outer loop
vertex -0.309409 0.552045 0.000285
vertex -0.303472 -0.552045 0.060569
vertex -0.303472 0.552045 0.060569
endloop
endfacet
facet normal -0.956940 0.000000 0.290284
outer loop
vertex -0.303472 0.552045 0.060569
vertex -0.303472 -0.552045 0.060569
vertex -0.285888 -0.552045 0.118536
endloop
endfacet
facet normal -0.956940 -0.000000 0.290284
outer loop
vertex -0.303472 0.552045 0.060569
vertex -0.285888 -0.552045 0.118536
vertex -0.285888 0.552045 0.118536
endloop
endfacet
facet normal -0.881921 -0.000000 0.471397
outer loop
vertex -0.285888 0.552045 0.118536
vertex -0.285888 -0.552045 0.118536
vertex -0.257333 -0.552045 0.171959
endloop
endfacet
facet normal -0.881921 -0.000000 0.471397
outer loop
vertex -0.285888 0.552045 0.118536
vertex -0.257333 -0.552045 0.171959
vertex -0.257333 0.552045 0.171959
endloop
endfacet
facet normal -0.773011 -0.000000 0.634393
outer loop
vertex -0.218904 -0.552045 0.218785
vertex -0.257333 0.552045 0.171959
vertex -0.257333 -0.552045 0.171959
endloop
endfacet
facet normal -0.773011 -0.000000 0.634393
outer loop
vertex -0.218904 -0.552045 0.218785
vertex -0.218904 0.552045 0.218785
vertex -0.257333 0.552045 0.171959
endloop
endfacet
facet normal -0.634394 -0.000000 0.773010
outer loop
vertex -0.218904 0.552045 0.218785
vertex -0.218904 -0.552045 0.218785
vertex -0.172079 -0.552045 0.257213
endloop
endfacet
facet normal -0.634394 -0.000000 0.773010
outer loop
vertex -0.218904 0.552045 0.218785
vertex -0.172079 -0.552045 0.257213
vertex -0.172079 0.552045 0.257214
endloop
endfacet
facet normal -0.471397 -0.000000 0.881921
outer loop
vertex -0.172079 0.552045 0.257214
vertex -0.172079 -0.552045 0.257213
vertex -0.118656 -0.552045 0.285769
endloop
endfacet
facet normal -0.471396 -0.000000 0.881922
outer loop
vertex -0.172079 0.552045 0.257214
vertex -0.118656 -0.552045 0.285769
vertex -0.118656 0.552045 0.285769
endloop
endfacet
facet normal 0.000000 -1.000000 0.000000
outer loop
vertex -0.285888 -0.552045 -0.117966
vertex -0.257333 -0.552045 -0.171389
vertex -0.222671 -0.552045 -0.148229
endloop
endfacet
facet normal 0.000000 -1.000000 0.000001
outer loop
vertex -0.285888 -0.552045 -0.117966
vertex -0.222671 -0.552045 -0.148229
vertex -0.240773 -0.552045 -0.114362
endloop
endfacet
facet normal 0.000000 -1.000000 0.000213
outer loop
vertex -0.247298 -0.552045 -0.101981
vertex -0.285888 -0.552045 -0.117966
vertex -0.247176 -0.552045 -0.102384
endloop
endfacet
facet normal 0.000000 -1.000000 -0.000003
outer loop
vertex -0.285888 -0.552045 -0.117966
vertex -0.240773 -0.552045 -0.114362
vertex -0.247176 -0.552045 -0.102384
endloop
endfacet
facet normal -0.290284 -0.000000 0.956940
outer loop
vertex -0.118656 0.552045 0.285769
vertex -0.118656 -0.552045 0.285769
vertex -0.060688 -0.552045 0.303353
endloop
endfacet
facet normal -0.290285 -0.000000 0.956940
outer loop
vertex -0.118656 0.552045 0.285769
vertex -0.060688 -0.552045 0.303353
vertex -0.060688 0.552045 0.303353
endloop
endfacet
facet normal -0.098017 -0.000000 0.995185
outer loop
vertex -0.060688 0.552045 0.303353
vertex -0.060688 -0.552045 0.303353
vertex -0.000404 -0.552045 0.309290
endloop
endfacet
facet normal -0.098017 -0.000000 0.995185
outer loop
vertex -0.060688 0.552045 0.303353
vertex -0.000404 -0.552045 0.309290
vertex -0.000404 0.552045 0.309290
endloop
endfacet
facet normal 0.000000 -1.000000 0.000001
outer loop
vertex -0.102384 -0.552045 0.247176
vertex -0.065977 -0.552045 0.258220
vertex -0.060688 -0.552045 0.303353
endloop
endfacet
facet normal 0.000000 -1.000000 0.000001
outer loop
vertex -0.060688 -0.552045 0.303353
vertex -0.118656 -0.552045 0.285769
vertex -0.102618 -0.552045 0.247051
endloop
endfacet
facet normal 0.000000 -1.000000 -0.000344
outer loop
vertex -0.060688 -0.552045 0.303353
vertex -0.102618 -0.552045 0.247051
vertex -0.102384 -0.552045 0.247176
endloop
endfacet
facet normal 0.000000 -1.000000 0.000000
outer loop
vertex -0.052523 -0.552045 0.262301
vertex -0.060688 -0.552045 0.303353
vertex -0.065977 -0.552045 0.258220
endloop
endfacet
facet normal 0.000000 -1.000000 0.000001
outer loop
vertex 0.263771 -0.552045 -0.038278
vertex 0.302663 -0.552045 -0.059999
vertex 0.308600 -0.552045 0.000285
endloop
endfacet
facet normal 0.000000 -1.000000 0.000136
outer loop
vertex 0.308600 -0.552045 0.000285
vertex 0.267513 -0.552045 0.000285
vertex 0.267541 -0.552045 0.000000
endloop
endfacet
facet normal 0.000000 -1.000000 -0.000001
outer loop
vertex 0.308600 -0.552045 0.000285
vertex 0.267541 -0.552045 0.000000
vertex 0.263771 -0.552045 -0.038278
endloop
endfacet
facet normal 0.000000 -1.000000 0.000002
outer loop
vertex 0.302663 -0.552045 -0.059999
vertex 0.263771 -0.552045 -0.038278
vertex 0.262420 -0.552045 -0.051994
endloop
endfacet
facet normal 0.000000 -1.000000 0.000000
outer loop
vertex -0.089570 -0.552045 -0.251063
vertex -0.118656 -0.552045 -0.285198
vertex -0.060688 -0.552045 -0.302782
endloop
endfacet
facet normal 0.000000 -1.000000 0.000002
outer loop
vertex -0.089570 -0.552045 -0.251063
vertex -0.060688 -0.552045 -0.302782
vertex -0.052630 -0.552045 -0.262269
endloop
endfacet
facet normal 0.000000 -1.000000 0.000000
outer loop
vertex -0.102811 -0.552045 -0.246947
vertex -0.118656 -0.552045 -0.285198
vertex -0.102384 -0.552045 -0.247176
endloop
endfacet
facet normal 0.000000 -1.000000 0.000000
outer loop
vertex -0.118656 -0.552045 -0.285198
vertex -0.089570 -0.552045 -0.251063
vertex -0.102384 -0.552045 -0.247176
endloop
endfacet
facet normal 0.000000 -1.000000 -0.000001
outer loop
vertex -0.257333 -0.552045 0.171959
vertex -0.285888 -0.552045 0.118536
vertex -0.247124 -0.552045 0.102480
endloop
endfacet
facet normal 0.000000 -1.000000 0.000000
outer loop
vertex -0.257333 -0.552045 0.171959
vertex -0.247124 -0.552045 0.102480
vertex -0.229090 -0.552045 0.136220
endloop
endfacet
facet normal 0.000000 -0.999974 0.007155
outer loop
vertex -0.222452 -0.552045 0.148638
vertex -0.222444 -0.552045 0.148648
vertex -0.257333 -0.552045 0.171959
endloop
endfacet
facet normal 0.000000 -1.000000 -0.000003
outer loop
vertex -0.222452 -0.552045 0.148638
vertex -0.257333 -0.552045 0.171959
vertex -0.229090 -0.552045 0.136220
endloop
endfacet
facet normal 0.000000 -1.000000 -0.000001
outer loop
vertex 0.256524 -0.552045 0.171959
vertex 0.218095 -0.552045 0.218785
vertex 0.188801 -0.552045 0.189491
endloop
endfacet
facet normal 0.000000 -1.000000 0.000000
outer loop
vertex 0.189180 -0.552045 0.189180
vertex 0.213351 -0.552045 0.159729
vertex 0.256524 -0.552045 0.171959
endloop
endfacet
facet normal 0.000000 -1.000000 0.000000
outer loop
vertex 0.188801 -0.552045 0.189491
vertex 0.189180 -0.552045 0.189180
vertex 0.256524 -0.552045 0.171959
endloop
endfacet
facet normal 0.000000 -1.000000 0.000000
outer loop
vertex 0.222158 -0.552045 0.148997
vertex 0.256524 -0.552045 0.171959
vertex 0.213351 -0.552045 0.159729
endloop
endfacet
facet normal 0.000000 -1.000000 -0.000001
outer loop
vertex 0.117847 -0.552045 -0.285198
vertex 0.171269 -0.552045 -0.256643
vertex 0.148480 -0.552045 -0.222537
endloop
endfacet
facet normal 0.000000 -1.000000 0.000000
outer loop
vertex 0.117847 -0.552045 -0.285198
vertex 0.148480 -0.552045 -0.222537
vertex 0.114301 -0.552045 -0.240806
endloop
endfacet
facet normal 0.000000 -1.000000 0.000000
outer loop
vertex 0.102384 -0.552045 -0.247176
vertex 0.102129 -0.552045 -0.247253
vertex 0.117847 -0.552045 -0.285198
endloop
endfacet
facet normal 0.000000 -1.000000 -0.000002
outer loop
vertex 0.102384 -0.552045 -0.247176
vertex 0.117847 -0.552045 -0.285198
vertex 0.114301 -0.552045 -0.240806
endloop
endfacet
facet normal 0.000000 -1.000000 0.000000
outer loop
vertex -0.303472 -0.552045 -0.059999
vertex -0.285888 -0.552045 -0.117966
vertex -0.247298 -0.552045 -0.101981
endloop
endfacet
facet normal 0.000000 -1.000000 0.000001
outer loop
vertex -0.303472 -0.552045 -0.059999
vertex -0.247298 -0.552045 -0.101981
vertex -0.258432 -0.552045 -0.065276
endloop
endfacet
facet normal 0.000000 -1.000000 0.000000
outer loop
vertex -0.262436 -0.552045 -0.051836
vertex -0.303472 -0.552045 -0.059999
vertex -0.262400 -0.552045 -0.052195
endloop
endfacet
facet normal 0.000000 -1.000000 -0.000002
outer loop
vertex -0.303472 -0.552045 -0.059999
vertex -0.258432 -0.552045 -0.065276
vertex -0.262400 -0.552045 -0.052195
endloop
endfacet
facet normal 0.000000 -1.000000 -0.000001
outer loop
vertex 0.000000 -0.552045 0.267541
vertex 0.037800 -0.552045 0.263818
vertex 0.059879 -0.552045 0.303353
endloop
endfacet
facet normal 0.000000 -1.000000 0.000000
outer loop
vertex 0.059879 -0.552045 0.303353
vertex -0.000404 -0.552045 0.309290
vertex -0.000404 -0.552045 0.267501
endloop
endfacet
facet normal 0.000000 -1.000000 0.000120
outer loop
vertex 0.059879 -0.552045 0.303353
vertex -0.000404 -0.552045 0.267501
vertex 0.000000 -0.552045 0.267541
endloop
endfacet
facet normal 0.000000 -1.000000 0.000000
outer loop
vertex 0.051742 -0.552045 0.262445
vertex 0.059879 -0.552045 0.303353
vertex 0.037800 -0.552045 0.263818
endloop
endfacet
facet normal 0.000000 -1.000000 -0.000001
outer loop
vertex -0.052195 -0.552045 0.262400
vertex -0.014374 -0.552045 0.266126
vertex -0.000404 -0.552045 0.309290
endloop
endfacet
facet normal 0.000000 -1.000000 0.000000
outer loop
vertex -0.000404 -0.552045 0.309290
vertex -0.060688 -0.552045 0.303353
vertex -0.052523 -0.552045 0.262301
endloop
endfacet
facet normal 0.000000 -1.000000 -0.000233
outer loop
vertex -0.000404 -0.552045 0.309290
vertex -0.052523 -0.552045 0.262301
vertex -0.052195 -0.552045 0.262400
endloop
endfacet
facet normal 0.000000 -1.000000 0.000000
outer loop
vertex -0.000404 -0.552045 0.267501
vertex -0.000404 -0.552045 0.309290
vertex -0.014374 -0.552045 0.266126
endloop
endfacet
facet normal 0.000000 -1.000000 0.000001
outer loop
vertex 0.251204 -0.552045 -0.089103
vertex 0.285079 -0.552045 -0.117966
vertex 0.302663 -0.552045 -0.059999
endloop
endfacet
facet normal 0.000000 -1.000000 -0.000421
outer loop
vertex 0.302663 -0.552045 -0.059999
vertex 0.262420 -0.552045 -0.051994
vertex 0.262400 -0.552045 -0.052195
endloop
endfacet
facet normal 0.000000 -1.000000 0.000001
outer loop
vertex 0.302663 -0.552045 -0.059999
vertex 0.262400 -0.552045 -0.052195
vertex 0.251204 -0.552045 -0.089103
endloop
endfacet
facet normal 0.000000 -1.000000 0.000000
outer loop
vertex 0.285079 -0.552045 -0.117966
vertex 0.251204 -0.552045 -0.089103
vertex 0.247208 -0.552045 -0.102279
endloop
endfacet
facet normal 0.000000 -1.000000 0.000000
outer loop
vertex -0.136811 -0.552045 -0.228774
vertex -0.172079 -0.552045 -0.256643
vertex -0.118656 -0.552045 -0.285198
endloop
endfacet
facet normal 0.000000 -1.000000 0.000000
outer loop
vertex -0.136811 -0.552045 -0.228774
vertex -0.118656 -0.552045 -0.285198
vertex -0.102811 -0.552045 -0.246947
endloop
endfacet
facet normal 0.000000 -1.000000 0.000000
outer loop
vertex -0.149022 -0.552045 -0.222137
vertex -0.172079 -0.552045 -0.256643
vertex -0.148638 -0.552045 -0.222452
endloop
endfacet
facet normal 0.000000 -1.000000 0.000002
outer loop
vertex -0.172079 -0.552045 -0.256643
vertex -0.136811 -0.552045 -0.228774
vertex -0.148638 -0.552045 -0.222452
endloop
endfacet
facet normal 0.000000 -1.000000 0.000001
outer loop
vertex -0.198175 -0.552045 0.178220
vertex -0.218904 -0.552045 0.218785
vertex -0.257333 -0.552045 0.171959
endloop
endfacet
facet normal 0.000000 -1.000000 -0.000002
outer loop
vertex -0.198175 -0.552045 0.178220
vertex -0.257333 -0.552045 0.171959
vertex -0.222444 -0.552045 0.148648
endloop
endfacet
facet normal 0.000000 -1.000000 0.000003
outer loop
vertex -0.218904 -0.552045 0.218785
vertex -0.198175 -0.552045 0.178220
vertex -0.189234 -0.552045 0.189115
endloop
endfacet
facet normal 0.000000 -1.000000 0.000001
outer loop
vertex 0.285079 -0.552045 0.118536
vertex 0.256524 -0.552045 0.171959
vertex 0.222158 -0.552045 0.148997
endloop
endfacet
facet normal 0.000000 -1.000000 0.000000
outer loop
vertex 0.222452 -0.552045 0.148638
vertex 0.240448 -0.552045 0.114971
vertex 0.285079 -0.552045 0.118536
endloop
endfacet
facet normal 0.000000 -1.000000 -0.000548
outer loop
vertex 0.222158 -0.552045 0.148997
vertex 0.222452 -0.552045 0.148638
vertex 0.285079 -0.552045 0.118536
endloop
endfacet
facet normal 0.000000 -1.000000 0.000000
outer loop
vertex 0.246978 -0.552045 0.102754
vertex 0.285079 -0.552045 0.118536
vertex 0.240448 -0.552045 0.114971
endloop
endfacet
facet normal 0.000000 -1.000000 0.000000
outer loop
vertex 0.065069 -0.552045 -0.258495
vertex 0.059879 -0.552045 -0.302782
vertex 0.117847 -0.552045 -0.285198
endloop
endfacet
facet normal 0.000000 -1.000000 0.000000
outer loop
vertex 0.065069 -0.552045 -0.258495
vertex 0.117847 -0.552045 -0.285198
vertex 0.102129 -0.552045 -0.247253
endloop
endfacet
facet normal 0.000000 -1.000000 0.000000
outer loop
vertex 0.052195 -0.552045 -0.262400
vertex 0.051854 -0.552045 -0.262434
vertex 0.059879 -0.552045 -0.302782
endloop
endfacet
facet normal 0.000000 -1.000000 0.000000
outer loop
vertex 0.052195 -0.552045 -0.262400
vertex 0.059879 -0.552045 -0.302782
vertex 0.065069 -0.552045 -0.258495
endloop
endfacet
facet normal 0.000000 -1.000000 0.000000
outer loop
vertex -0.309409 -0.552045 0.000285
vertex -0.303472 -0.552045 -0.059999
vertex -0.262436 -0.552045 -0.051836
endloop
endfacet
facet normal 0.000000 -1.000000 -0.000001
outer loop
vertex -0.309409 -0.552045 0.000285
vertex -0.262436 -0.552045 -0.051836
vertex -0.266192 -0.552045 -0.013701
endloop
endfacet
facet normal 0.000000 -1.000000 0.000002
outer loop
vertex -0.309409 -0.552045 0.000285
vertex -0.266192 -0.552045 -0.013701
vertex -0.267541 -0.552045 0.000000
endloop
endfacet
facet normal 0.000000 -1.000000 0.000134
outer loop
vertex -0.309409 -0.552045 0.000285
vertex -0.267541 -0.552045 0.000000
vertex -0.267513 -0.552045 0.000285
endloop
endfacet
facet normal 0.000000 -1.000000 0.000000
outer loop
vertex 0.117847 -0.552045 0.285769
vertex 0.059879 -0.552045 0.303353
vertex 0.051742 -0.552045 0.262445
endloop
endfacet
facet normal 0.000000 -1.000000 0.000000
outer loop
vertex 0.052195 -0.552045 0.262400
vertex 0.088541 -0.552045 0.251375
vertex 0.117847 -0.552045 0.285769
endloop
endfacet
facet normal 0.000000 -1.000000 0.000000
outer loop
vertex 0.051742 -0.552045 0.262445
vertex 0.052195 -0.552045 0.262400
vertex 0.117847 -0.552045 0.285769
endloop
endfacet
facet normal 0.000000 -1.000000 0.000000
outer loop
vertex 0.101919 -0.552045 0.247317
vertex 0.117847 -0.552045 0.285769
vertex 0.088541 -0.552045 0.251375
endloop
endfacet
facet normal 0.000000 -1.000000 0.000002
outer loop
vertex 0.228946 -0.552045 -0.136490
vertex 0.256524 -0.552045 -0.171389
vertex 0.285079 -0.552045 -0.117966
endloop
endfacet
facet normal 0.000000 -1.000000 -0.000505
outer loop
vertex 0.285079 -0.552045 -0.117966
vertex 0.247208 -0.552045 -0.102279
vertex 0.247176 -0.552045 -0.102384
endloop
endfacet
facet normal 0.000000 -1.000000 0.000000
outer loop
vertex 0.285079 -0.552045 -0.117966
vertex 0.247176 -0.552045 -0.102384
vertex 0.228946 -0.552045 -0.136490
endloop
endfacet
facet normal 0.000000 -1.000000 -0.000001
outer loop
vertex 0.256524 -0.552045 -0.171389
vertex 0.228946 -0.552045 -0.136490
vertex 0.222458 -0.552045 -0.148627
endloop
endfacet
facet normal 0.000000 -1.000000 -0.000001
outer loop
vertex -0.178783 -0.552045 -0.197713
vertex -0.218904 -0.552045 -0.218214
vertex -0.172079 -0.552045 -0.256643
endloop
endfacet
facet normal 0.000000 -1.000000 -0.000001
outer loop
vertex -0.178783 -0.552045 -0.197713
vertex -0.172079 -0.552045 -0.256643
vertex -0.149022 -0.552045 -0.222137
endloop
endfacet
facet normal 0.000000 -1.000000 -0.000184
outer loop
vertex -0.189491 -0.552045 -0.188801
vertex -0.218904 -0.552045 -0.218214
vertex -0.189180 -0.552045 -0.189180
endloop
endfacet
facet normal 0.000000 -1.000000 0.000005
outer loop
vertex -0.218904 -0.552045 -0.218214
vertex -0.178783 -0.552045 -0.197713
vertex -0.189180 -0.552045 -0.189180
endloop
endfacet
facet normal 0.000000 -1.000000 0.000001
outer loop
vertex -0.189180 -0.552045 0.189180
vertex -0.159667 -0.552045 0.213401
vertex -0.172079 -0.552045 0.257213
endloop
endfacet
facet normal 0.000000 -1.000000 0.000000
outer loop
vertex -0.172079 -0.552045 0.257213
vertex -0.218904 -0.552045 0.218785
vertex -0.189234 -0.552045 0.189115
endloop
endfacet
facet normal 0.000000 -1.000000 -0.000629
outer loop
vertex -0.172079 -0.552045 0.257213
vertex -0.189234 -0.552045 0.189115
vertex -0.189180 -0.552045 0.189180
endloop
endfacet
facet normal 0.000000 -1.000000 0.000000
outer loop
vertex -0.172079 -0.552045 0.257213
vertex -0.159667 -0.552045 0.213401
vertex -0.148776 -0.552045 0.222339
endloop
endfacet
facet normal 0.000000 -1.000000 0.000000
outer loop
vertex 0.302663 -0.552045 0.060569
vertex 0.285079 -0.552045 0.118536
vertex 0.246978 -0.552045 0.102754
endloop
endfacet
facet normal 0.000000 -1.000000 -0.000002
outer loop
vertex 0.247176 -0.552045 0.102384
vertex 0.258283 -0.552045 0.065769
vertex 0.302663 -0.552045 0.060569
endloop
endfacet
facet normal 0.000000 -1.000000 0.000000
outer loop
vertex 0.246978 -0.552045 0.102754
vertex 0.247176 -0.552045 0.102384
vertex 0.302663 -0.552045 0.060569
endloop
endfacet
facet normal 0.000000 -1.000000 0.000000
outer loop
vertex 0.262296 -0.552045 0.052540
vertex 0.302663 -0.552045 0.060569
vertex 0.258283 -0.552045 0.065769
endloop
endfacet
facet normal 0.000000 -1.000000 0.000000
outer loop
vertex 0.013347 -0.552045 -0.266227
vertex -0.000404 -0.552045 -0.308720
vertex 0.059879 -0.552045 -0.302782
endloop
endfacet
facet normal 0.000000 -1.000000 0.000001
outer loop
vertex 0.013347 -0.552045 -0.266227
vertex 0.059879 -0.552045 -0.302782
vertex 0.051854 -0.552045 -0.262434
endloop
endfacet
facet normal 0.000000 -1.000000 0.000000
outer loop
vertex -0.000404 -0.552045 -0.267501
vertex -0.000404 -0.552045 -0.308720
vertex 0.000000 -0.552045 -0.267541
endloop
endfacet
facet normal 0.000000 -1.000000 -0.000002
outer loop
vertex -0.000404 -0.552045 -0.308720
vertex 0.013347 -0.552045 -0.266227
vertex 0.000000 -0.552045 -0.267541
endloop
endfacet
facet normal 0.000000 -1.000000 0.000000
outer loop
vertex -0.303472 -0.552045 0.060569
vertex -0.309409 -0.552045 0.000285
vertex -0.267513 -0.552045 0.000285
endloop
endfacet
facet normal 0.000000 -1.000000 -0.000000
outer loop
vertex -0.303472 -0.552045 0.060569
vertex -0.267513 -0.552045 0.000285
vertex -0.263760 -0.552045 0.038390
endloop
endfacet
facet normal 0.000000 -1.000000 0.000000
outer loop
vertex -0.262400 -0.552045 0.052195
vertex -0.262342 -0.552045 0.052388
vertex -0.303472 -0.552045 0.060569
endloop
endfacet
facet normal 0.000000 -1.000000 0.000000
outer loop
vertex -0.262400 -0.552045 0.052195
vertex -0.303472 -0.552045 0.060569
vertex -0.263760 -0.552045 0.038390
endloop
endfacet
facet normal 0.000000 -1.000000 0.000001
outer loop
vertex 0.171269 -0.552045 0.257213
vertex 0.117847 -0.552045 0.285769
vertex 0.101919 -0.552045 0.247317
endloop
endfacet
facet normal 0.000000 -1.000000 0.000002
outer loop
vertex 0.102384 -0.552045 0.247176
vertex 0.135898 -0.552045 0.229262
vertex 0.171269 -0.552045 0.257213
endloop
endfacet
facet normal 0.000000 -1.000000 0.000000
outer loop
vertex 0.101919 -0.552045 0.247317
vertex 0.102384 -0.552045 0.247176
vertex 0.171269 -0.552045 0.257213
endloop
endfacet
facet normal 0.000000 -1.000000 0.000000
outer loop
vertex 0.148199 -0.552045 0.222687
vertex 0.171269 -0.552045 0.257213
vertex 0.135898 -0.552045 0.229262
endloop
endfacet
facet normal 0.000000 -1.000000 0.000000
outer loop
vertex 0.222452 -0.552045 -0.148638
vertex 0.197856 -0.552045 -0.178608
vertex 0.218095 -0.552045 -0.218214
endloop
endfacet
facet normal 0.000000 -1.000000 0.000000
outer loop
vertex 0.218095 -0.552045 -0.218214
vertex 0.256524 -0.552045 -0.171389
vertex 0.222458 -0.552045 -0.148627
endloop
endfacet
facet normal 0.000000 -1.000000 -0.000488
outer loop
vertex 0.218095 -0.552045 -0.218214
vertex 0.222458 -0.552045 -0.148627
vertex 0.222452 -0.552045 -0.148638
endloop
endfacet
facet normal 0.000000 -1.000000 -0.000002
outer loop
vertex 0.218095 -0.552045 -0.218214
vertex 0.197856 -0.552045 -0.178608
vertex 0.189180 -0.552045 -0.189180
endloop
endfacet
facet normal 0.000000 -1.000000 -0.000179
outer loop
vertex 0.218095 -0.552045 -0.218214
vertex 0.189180 -0.552045 -0.189180
vertex 0.189115 -0.552045 -0.189234
endloop
endfacet
facet normal 0.000000 -1.000000 0.000001
outer loop
vertex -0.257333 -0.552045 -0.171389
vertex -0.218904 -0.552045 -0.218214
vertex -0.189491 -0.552045 -0.188801
endloop
endfacet
facet normal 0.000000 -1.000000 -0.000001
outer loop
vertex -0.257333 -0.552045 -0.171389
vertex -0.189491 -0.552045 -0.188801
vertex -0.213883 -0.552045 -0.159080
endloop
endfacet
facet normal 0.000000 -1.000000 0.000000
outer loop
vertex -0.222671 -0.552045 -0.148229
vertex -0.257333 -0.552045 -0.171389
vertex -0.222452 -0.552045 -0.148638
endloop
endfacet
facet normal 0.000000 -1.000000 -0.000005
outer loop
vertex -0.257333 -0.552045 -0.171389
vertex -0.213883 -0.552045 -0.159080
vertex -0.222452 -0.552045 -0.148638
endloop
endfacet
facet normal 0.000000 -1.000000 0.000001
outer loop
vertex -0.148638 -0.552045 0.222452
vertex -0.115033 -0.552045 0.240415
vertex -0.118656 -0.552045 0.285769
endloop
endfacet
facet normal 0.000000 -1.000000 -0.000001
outer loop
vertex -0.118656 -0.552045 0.285769
vertex -0.172079 -0.552045 0.257213
vertex -0.148776 -0.552045 0.222339
endloop
endfacet
facet normal 0.000000 -1.000000 -0.000044
outer loop
vertex -0.118656 -0.552045 0.285769
vertex -0.148776 -0.552045 0.222339
vertex -0.148638 -0.552045 0.222452
endloop
endfacet
facet normal 0.000000 -1.000000 0.000000
outer loop
vertex -0.118656 -0.552045 0.285769
vertex -0.115033 -0.552045 0.240415
vertex -0.102618 -0.552045 0.247051
endloop
endfacet
facet normal 0.000000 -1.000000 0.000002
outer loop
vertex 0.308600 -0.552045 0.000285
vertex 0.302663 -0.552045 0.060569
vertex 0.262296 -0.552045 0.052540
endloop
endfacet
facet normal 0.000000 -1.000000 0.000000
outer loop
vertex 0.262400 -0.552045 0.052195
vertex 0.266160 -0.552045 0.014020
vertex 0.308600 -0.552045 0.000285
endloop
endfacet
facet normal 0.000000 -1.000000 0.000000
outer loop
vertex 0.262296 -0.552045 0.052540
vertex 0.262400 -0.552045 0.052195
vertex 0.308600 -0.552045 0.000285
endloop
endfacet
facet normal 0.000000 -1.000000 0.000000
outer loop
vertex 0.267513 -0.552045 0.000285
vertex 0.308600 -0.552045 0.000285
vertex 0.266160 -0.552045 0.014020
endloop
endfacet
facet normal 0.000000 -1.000000 0.000000
outer loop
vertex -0.038868 -0.552045 -0.263713
vertex -0.060688 -0.552045 -0.302782
vertex -0.000404 -0.552045 -0.308720
endloop
endfacet
facet normal 0.000000 -1.000000 0.000000
outer loop
vertex -0.038868 -0.552045 -0.263713
vertex -0.000404 -0.552045 -0.308720
vertex -0.000404 -0.552045 -0.267501
endloop
endfacet
facet normal 0.000000 -1.000000 0.000000
outer loop
vertex -0.052630 -0.552045 -0.262269
vertex -0.060688 -0.552045 -0.302782
vertex -0.052195 -0.552045 -0.262400
endloop
endfacet
facet normal 0.000000 -1.000000 -0.000002
outer loop
vertex -0.060688 -0.552045 -0.302782
vertex -0.038868 -0.552045 -0.263713
vertex -0.052195 -0.552045 -0.262400
endloop
endfacet
facet normal 0.000000 -1.000000 0.000000
outer loop
vertex -0.285888 -0.552045 0.118536
vertex -0.303472 -0.552045 0.060569
vertex -0.262342 -0.552045 0.052388
endloop
endfacet
facet normal 0.000000 -1.000000 -0.000001
outer loop
vertex -0.285888 -0.552045 0.118536
vertex -0.262342 -0.552045 0.052388
vertex -0.251233 -0.552045 0.089008
endloop
endfacet
facet normal 0.000000 -1.000000 0.000817
outer loop
vertex -0.247176 -0.552045 0.102384
vertex -0.247124 -0.552045 0.102480
vertex -0.285888 -0.552045 0.118536
endloop
endfacet
facet normal 0.000000 -1.000000 0.000000
outer loop
vertex -0.247176 -0.552045 0.102384
vertex -0.285888 -0.552045 0.118536
vertex -0.251233 -0.552045 0.089008
endloop
endfacet
facet normal 0.000000 -1.000000 0.000000
outer loop
vertex 0.218095 -0.552045 0.218785
vertex 0.171269 -0.552045 0.257213
vertex 0.148199 -0.552045 0.222687
endloop
endfacet
facet normal 0.000000 -1.000000 0.000000
outer loop
vertex 0.148638 -0.552045 0.222452
vertex 0.178045 -0.552045 0.198319
vertex 0.218095 -0.552045 0.218785
endloop
endfacet
facet normal 0.000000 -1.000000 0.000000
outer loop
vertex 0.148199 -0.552045 0.222687
vertex 0.148638 -0.552045 0.222452
vertex 0.218095 -0.552045 0.218785
endloop
endfacet
facet normal 0.000000 -1.000000 0.000000
outer loop
vertex 0.188801 -0.552045 0.189491
vertex 0.218095 -0.552045 0.218785
vertex 0.178045 -0.552045 0.198319
endloop
endfacet
facet normal 0.000000 -1.000000 0.000002
outer loop
vertex 0.171269 -0.552045 -0.256643
vertex 0.218095 -0.552045 -0.218214
vertex 0.189115 -0.552045 -0.189234
endloop
endfacet
facet normal 0.000000 -1.000000 0.000000
outer loop
vertex 0.171269 -0.552045 -0.256643
vertex 0.189115 -0.552045 -0.189234
vertex 0.159142 -0.552045 -0.213832
endloop
endfacet
facet normal 0.000000 -1.000000 0.000002
outer loop
vertex 0.171269 -0.552045 -0.256643
vertex 0.159142 -0.552045 -0.213832
vertex 0.148638 -0.552045 -0.222452
endloop
endfacet
facet normal 0.000000 -1.000000 -0.000064
outer loop
vertex 0.171269 -0.552045 -0.256643
vertex 0.148638 -0.552045 -0.222452
vertex 0.148480 -0.552045 -0.222537
endloop
endfacet
facet normal 0.000000 1.000000 0.000000
outer loop
vertex -0.060688 0.552045 0.303353
vertex -0.000404 0.552045 0.309290
vertex 0.059879 0.552045 0.303353
endloop
endfacet
facet normal 0.000000 1.000000 0.000000
outer loop
vertex 0.117847 0.552045 0.285769
vertex 0.171269 0.552045 0.257214
vertex 0.059879 0.552045 0.303353
endloop
endfacet
facet normal 0.000000 1.000000 -0.000010
outer loop
vertex 0.218095 0.552045 0.218785
vertex 0.256524 0.552045 0.171959
vertex 0.171269 0.552045 0.257214
endloop
endfacet
facet normal -0.000691 1.000000 -0.000390
outer loop
vertex 0.222452 0.552013 0.148638
vertex 0.222158 0.552012 0.148997
vertex 0.256524 0.552045 0.171959
endloop
endfacet
facet normal -0.000707 1.000000 -0.000378
outer loop
vertex 0.256524 0.552045 0.171959
vertex 0.285079 0.552045 0.118536
vertex 0.240448 0.552013 0.114971
endloop
endfacet
facet normal -0.000707 1.000000 -0.000378
outer loop
vertex 0.256524 0.552045 0.171959
vertex 0.240448 0.552013 0.114971
vertex 0.222452 0.552013 0.148638
endloop
endfacet
facet normal -0.000619 1.000000 -0.000509
outer loop
vertex 0.213351 0.552012 0.159729
vertex 0.256524 0.552045 0.171959
vertex 0.222158 0.552012 0.148997
endloop
endfacet
facet normal 0.000000 1.000000 0.000000
outer loop
vertex 0.171269 0.552045 0.257214
vertex 0.256524 0.552045 0.171959
vertex 0.059879 0.552045 0.303353
endloop
endfacet
facet normal 0.000000 1.000000 0.000000
outer loop
vertex -0.118656 0.552045 0.285769
vertex -0.060688 0.552045 0.303353
vertex 0.059879 0.552045 0.303353
endloop
endfacet
facet normal 0.000000 1.000000 0.000000
outer loop
vertex -0.172079 0.552045 0.257214
vertex -0.118656 0.552045 0.285769
vertex -0.218904 0.552045 0.218785
endloop
endfacet
facet normal 0.000000 1.000000 0.000000
outer loop
vertex -0.257333 0.552045 0.171959
vertex -0.218904 0.552045 0.218785
vertex -0.285888 0.552045 0.118536
endloop
endfacet
facet normal 0.000692 1.000000 -0.000573
outer loop
vertex -0.285888 0.552045 0.118536
vertex -0.234898 0.552014 0.125355
vertex -0.240481 0.552012 0.114909
endloop
endfacet
facet normal 0.000736 0.999999 -0.000892
outer loop
vertex -0.285888 0.552045 0.118536
vertex -0.231292 0.552017 0.132099
vertex -0.234898 0.552014 0.125355
endloop
endfacet
facet normal 0.000000 1.000000 0.000003
outer loop
vertex -0.218904 0.552045 0.218785
vertex -0.118656 0.552045 0.285769
vertex -0.285888 0.552045 0.118536
endloop
endfacet
facet normal 0.000000 1.000000 0.000000
outer loop
vertex -0.044213 0.552045 0.263187
vertex -0.118656 0.552045 0.285769
vertex 0.059879 0.552045 0.303353
endloop
endfacet
facet normal 0.000000 1.000000 0.000003
outer loop
vertex 0.059879 0.552045 0.303353
vertex 0.256524 0.552045 0.171959
vertex 0.182980 0.552045 0.194268
endloop
endfacet
facet normal 0.000000 1.000000 -0.000013
outer loop
vertex 0.059879 0.552045 0.303353
vertex 0.182980 0.552045 0.194268
vertex 0.148638 0.552045 0.222452
endloop
endfacet
facet normal 0.000000 1.000000 0.000006
outer loop
vertex 0.000000 0.552045 0.267541
vertex -0.044213 0.552045 0.263187
vertex 0.059879 0.552045 0.303353
endloop
endfacet
facet normal 0.000000 1.000000 0.000000
outer loop
vertex 0.052195 0.552045 0.262400
vertex 0.000000 0.552045 0.267541
vertex 0.059879 0.552045 0.303353
endloop
endfacet
facet normal 0.000000 1.000000 -0.000002
outer loop
vertex 0.059879 0.552045 0.303353
vertex 0.148638 0.552045 0.222452
vertex 0.102384 0.552045 0.247176
endloop
endfacet
facet normal 0.000000 1.000000 0.000000
outer loop
vertex 0.059879 0.552045 0.303353
vertex 0.102384 0.552045 0.247176
vertex 0.052195 0.552045 0.262400
endloop
endfacet
facet normal -0.000568 1.000000 -0.000706
outer loop
vertex 0.205949 0.552014 0.168747
vertex 0.256524 0.552045 0.171959
vertex 0.213351 0.552012 0.159729
endloop
endfacet
facet normal -0.000547 0.999999 -0.001022
outer loop
vertex 0.201170 0.552018 0.174571
vertex 0.256524 0.552045 0.171959
vertex 0.205949 0.552014 0.168747
endloop
endfacet
facet normal 0.000682 1.000000 -0.000680
outer loop
vertex -0.118656 0.552045 0.285769
vertex -0.115033 0.552012 0.240415
vertex -0.148638 0.552023 0.222452
endloop
endfacet
facet normal 0.000682 1.000000 -0.000686
outer loop
vertex -0.118656 0.552045 0.285769
vertex -0.148638 0.552023 0.222452
vertex -0.189180 0.552028 0.189180
endloop
endfacet
facet normal 0.000683 1.000000 -0.000680
outer loop
vertex -0.222452 0.552023 0.148638
vertex -0.231292 0.552017 0.132099
vertex -0.285888 0.552045 0.118536
endloop
endfacet
facet normal 0.000690 0.999999 -0.000683
outer loop
vertex -0.118656 0.552045 0.285769
vertex -0.189180 0.552028 0.189180
vertex -0.222452 0.552023 0.148638
endloop
endfacet
facet normal 0.000683 1.000000 -0.000684
outer loop
vertex -0.285888 0.552045 0.118536
vertex -0.118656 0.552045 0.285769
vertex -0.222452 0.552023 0.148638
endloop
endfacet
facet normal 0.000378 1.000000 -0.000707
outer loop
vertex -0.118656 0.552045 0.285769
vertex -0.102618 0.552012 0.247051
vertex -0.115033 0.552012 0.240415
endloop
endfacet
facet normal -0.000592 0.999998 -0.001985
outer loop
vertex -0.118656 0.552045 0.285769
vertex -0.044213 0.552045 0.263187
vertex -0.052195 0.552039 0.262400
endloop
endfacet
facet normal -0.000589 0.999998 -0.001949
outer loop
vertex -0.118656 0.552045 0.285769
vertex -0.052195 0.552039 0.262400
vertex -0.067366 0.552021 0.257798
endloop
endfacet
facet normal -0.000592 0.999998 -0.001990
outer loop
vertex 0.182980 0.552045 0.194268
vertex 0.256524 0.552045 0.171959
vertex 0.189180 0.552039 0.189180
endloop
endfacet
facet normal -0.000590 0.999998 -0.001937
outer loop
vertex 0.256524 0.552045 0.171959
vertex 0.201170 0.552018 0.174571
vertex 0.189180 0.552039 0.189180
endloop
endfacet
facet normal -0.000595 0.999998 -0.001931
outer loop
vertex -0.118656 0.552045 0.285769
vertex -0.067366 0.552021 0.257798
vertex -0.070576 0.552017 0.256824
endloop
endfacet
facet normal 0.000233 1.000000 -0.000768
outer loop
vertex -0.118656 0.552045 0.285769
vertex -0.089184 0.552012 0.251180
vertex -0.102384 0.552012 0.247176
endloop
endfacet
facet normal 0.000378 1.000000 -0.000625
outer loop
vertex -0.118656 0.552045 0.285769
vertex -0.102384 0.552012 0.247176
vertex -0.102618 0.552012 0.247051
endloop
endfacet
facet normal -0.000115 0.999999 -0.001149
outer loop
vertex -0.118656 0.552045 0.285769
vertex -0.070576 0.552017 0.256824
vertex -0.077877 0.552014 0.254610
endloop
endfacet
facet normal 0.000086 1.000000 -0.000897
outer loop
vertex -0.118656 0.552045 0.285769
vertex -0.077877 0.552014 0.254610
vertex -0.089184 0.552012 0.251180
endloop
endfacet
facet normal -0.000720 1.000000 -0.000229
outer loop
vertex 0.247176 0.552015 0.102384
vertex 0.240448 0.552013 0.114971
vertex 0.285079 0.552045 0.118536
endloop
endfacet
facet normal -0.000720 1.000000 -0.000219
outer loop
vertex 0.285079 0.552045 0.118536
vertex 0.302663 0.552045 0.060569
vertex 0.254910 0.552015 0.076887
endloop
endfacet
facet normal -0.000720 1.000000 -0.000218
outer loop
vertex 0.285079 0.552045 0.118536
vertex 0.254910 0.552015 0.076887
vertex 0.247176 0.552015 0.102384
endloop
endfacet
facet normal 0.000000 1.000000 0.000000
outer loop
vertex 0.302663 0.552045 0.060569
vertex 0.308600 0.552045 0.000285
vertex 0.302663 0.552045 -0.059999
endloop
endfacet
facet normal -0.000768 1.000000 0.000231
outer loop
vertex 0.302663 0.552045 -0.059999
vertex 0.258462 0.552013 -0.065178
vertex 0.262400 0.552013 -0.052195
endloop
endfacet
facet normal -0.000798 1.000000 0.000189
outer loop
vertex 0.302663 0.552045 -0.059999
vertex 0.262400 0.552013 -0.052195
vertex 0.262420 0.552013 -0.051994
endloop
endfacet
facet normal -0.000798 1.000000 0.000073
outer loop
vertex 0.263771 0.552013 -0.038278
vertex 0.302663 0.552045 -0.059999
vertex 0.262420 0.552013 -0.051994
endloop
endfacet
facet normal -0.000645 1.000000 0.000004
outer loop
vertex 0.262400 0.552019 0.052195
vertex 0.254910 0.552015 0.076887
vertex 0.302663 0.552045 0.060569
endloop
endfacet
facet normal -0.000645 1.000000 0.000000
outer loop
vertex 0.302663 0.552045 0.060569
vertex 0.302663 0.552045 -0.059999
vertex 0.265962 0.552022 -0.016035
endloop
endfacet
facet normal -0.000646 1.000000 0.000000
outer loop
vertex 0.267541 0.552023 0.000000
vertex 0.262400 0.552019 0.052195
vertex 0.302663 0.552045 0.060569
endloop
endfacet
facet normal -0.000646 1.000000 -0.000007
outer loop
vertex 0.302663 0.552045 0.060569
vertex 0.265962 0.552022 -0.016035
vertex 0.267541 0.552023 0.000000
endloop
endfacet
facet normal -0.001806 0.999998 -0.000943
outer loop
vertex 0.265962 0.552022 -0.016035
vertex 0.302663 0.552045 -0.059999
vertex 0.265640 0.552018 -0.019308
endloop
endfacet
facet normal -0.000888 1.000000 -0.000087
outer loop
vertex 0.264906 0.552015 -0.026751
vertex 0.302663 0.552045 -0.059999
vertex 0.263771 0.552013 -0.038278
endloop
endfacet
facet normal -0.001113 0.999999 -0.000342
outer loop
vertex 0.265640 0.552018 -0.019308
vertex 0.302663 0.552045 -0.059999
vertex 0.264906 0.552015 -0.026751
endloop
endfacet
facet normal 0.000592 1.000000 0.000314
outer loop
vertex -0.222452 0.552018 -0.148638
vertex -0.206434 0.552014 -0.168156
vertex -0.257333 0.552045 -0.171389
endloop
endfacet
facet normal 0.000592 1.000000 0.000317
outer loop
vertex -0.257333 0.552045 -0.171389
vertex -0.285888 0.552045 -0.117966
vertex -0.231644 0.552018 -0.131442
endloop
endfacet
facet normal 0.000592 1.000000 0.000320
outer loop
vertex -0.257333 0.552045 -0.171389
vertex -0.231644 0.552018 -0.131442
vertex -0.222452 0.552018 -0.148638
endloop
endfacet
facet normal 0.000000 1.000000 0.000002
outer loop
vertex -0.285888 0.552045 -0.117966
vertex -0.303472 0.552045 -0.059999
vertex -0.309409 0.552045 0.000285
endloop
endfacet
facet normal 0.000000 1.000000 -0.000003
outer loop
vertex -0.309409 0.552045 0.000285
vertex -0.303472 0.552045 0.060569
vertex -0.285888 0.552045 0.118536
endloop
endfacet
facet normal 0.000708 1.000000 -0.000377
outer loop
vertex -0.285888 0.552045 0.118536
vertex -0.240481 0.552012 0.114909
vertex -0.247124 0.552012 0.102480
endloop
endfacet
facet normal 0.000708 1.000000 -0.000319
outer loop
vertex -0.285888 0.552045 0.118536
vertex -0.247124 0.552012 0.102480
vertex -0.247176 0.552012 0.102384
endloop
endfacet
facet normal 0.000768 1.000000 -0.000239
outer loop
vertex -0.285888 0.552045 0.118536
vertex -0.247176 0.552012 0.102384
vertex -0.251233 0.552012 0.089008
endloop
endfacet
facet normal 0.000000 1.000000 0.000000
outer loop
vertex -0.285888 0.552045 -0.117966
vertex -0.309409 0.552045 0.000285
vertex -0.285888 0.552045 0.118536
endloop
endfacet
facet normal 0.000737 0.999999 0.000910
outer loop
vertex -0.235226 0.552014 -0.124740
vertex -0.231644 0.552018 -0.131442
vertex -0.285888 0.552045 -0.117966
endloop
endfacet
facet normal 0.000692 1.000000 0.000565
outer loop
vertex -0.240773 0.552012 -0.114362
vertex -0.235226 0.552014 -0.124740
vertex -0.285888 0.552045 -0.117966
endloop
endfacet
facet normal 0.000964 1.000000 0.000000
outer loop
vertex -0.262400 0.552023 -0.052195
vertex -0.257003 0.552018 -0.069986
vertex -0.285888 0.552045 -0.117966
endloop
endfacet
facet normal 0.000967 1.000000 0.000001
outer loop
vertex -0.285888 0.552045 0.118536
vertex -0.251233 0.552012 0.089008
vertex -0.262400 0.552023 0.052195
endloop
endfacet
facet normal 0.000968 1.000000 -0.000001
outer loop
vertex -0.267541 0.552028 0.000000
vertex -0.262400 0.552023 -0.052195
vertex -0.285888 0.552045 -0.117966
endloop
endfacet
facet normal 0.000968 1.000000 0.000001
outer loop
vertex -0.285888 0.552045 0.118536
vertex -0.262400 0.552023 0.052195
vertex -0.267541 0.552028 0.000000
endloop
endfacet
facet normal 0.000965 0.999999 0.000000
outer loop
vertex -0.285888 0.552045 -0.117966
vertex -0.285888 0.552045 0.118536
vertex -0.267541 0.552028 0.000000
endloop
endfacet
facet normal 0.001157 0.999999 -0.000118
outer loop
vertex -0.257003 0.552018 -0.069986
vertex -0.254793 0.552014 -0.077272
vertex -0.285888 0.552045 -0.117966
endloop
endfacet
facet normal 0.000707 1.000000 0.000377
outer loop
vertex -0.247176 0.552012 -0.102384
vertex -0.240773 0.552012 -0.114362
vertex -0.285888 0.552045 -0.117966
endloop
endfacet
facet normal 0.000713 1.000000 0.000213
outer loop
vertex -0.247176 0.552012 -0.102384
vertex -0.285888 0.552045 -0.117966
vertex -0.247298 0.552012 -0.101981
endloop
endfacet
facet normal 0.000889 1.000000 0.000091
outer loop
vertex -0.254793 0.552014 -0.077272
vertex -0.251371 0.552012 -0.088555
vertex -0.285888 0.552045 -0.117966
endloop
endfacet
facet normal 0.000767 1.000000 0.000236
outer loop
vertex -0.247298 0.552012 -0.101981
vertex -0.285888 0.552045 -0.117966
vertex -0.251371 0.552012 -0.088555
endloop
endfacet
facet normal -0.000768 1.000000 0.000234
outer loop
vertex 0.258462 0.552013 -0.065178
vertex 0.302663 0.552045 -0.059999
vertex 0.285079 0.552045 -0.117966
endloop
endfacet
facet normal -0.000768 1.000000 0.000231
outer loop
vertex 0.258462 0.552013 -0.065178
vertex 0.285079 0.552045 -0.117966
vertex 0.247208 0.552013 -0.102279
endloop
endfacet
facet normal 0.000000 1.000000 0.000005
outer loop
vertex 0.218095 0.552045 -0.218214
vertex 0.285079 0.552045 -0.117966
vertex 0.256524 0.552045 -0.171389
endloop
endfacet
facet normal 0.000000 1.000000 -0.000005
outer loop
vertex 0.117847 0.552045 -0.285198
vertex 0.218095 0.552045 -0.218214
vertex 0.171269 0.552045 -0.256643
endloop
endfacet
facet normal 0.000000 1.000000 0.000000
outer loop
vertex 0.117847 0.552045 -0.285198
vertex 0.059879 0.552045 -0.302782
vertex -0.000404 0.552045 -0.308720
endloop
endfacet
facet normal 0.000079 1.000000 0.000798
outer loop
vertex -0.014183 0.552013 -0.266144
vertex -0.000404 0.552045 -0.308720
vertex -0.060688 0.552045 -0.302782
endloop
endfacet
facet normal 0.000104 1.000000 0.000854
outer loop
vertex -0.060688 0.552045 -0.302782
vertex -0.052630 0.552012 -0.262268
vertex -0.052195 0.552013 -0.262400
endloop
endfacet
facet normal 0.000079 1.000000 0.000797
outer loop
vertex -0.060688 0.552045 -0.302782
vertex -0.052195 0.552013 -0.262400
vertex -0.014183 0.552013 -0.266144
endloop
endfacet
facet normal 0.000079 1.000000 0.000797
outer loop
vertex -0.000404 0.552045 -0.308720
vertex -0.014183 0.552013 -0.266144
vertex -0.000404 0.552013 -0.267501
endloop
endfacet
facet normal 0.000000 1.000000 0.000001
outer loop
vertex -0.000404 0.552045 -0.308720
vertex 0.218095 0.552045 -0.218214
vertex 0.117847 0.552045 -0.285198
endloop
endfacet
facet normal -0.000768 0.999999 0.000836
outer loop
vertex 0.247176 0.552013 -0.102384
vertex 0.247208 0.552013 -0.102279
vertex 0.285079 0.552045 -0.117966
endloop
endfacet
facet normal -0.000677 1.000000 0.000452
outer loop
vertex 0.285079 0.552045 -0.117966
vertex 0.218095 0.552045 -0.218214
vertex 0.205193 0.552015 -0.169669
endloop
endfacet
facet normal -0.000677 1.000000 0.000455
outer loop
vertex 0.222452 0.552017 -0.148638
vertex 0.247176 0.552013 -0.102384
vertex 0.285079 0.552045 -0.117966
endloop
endfacet
facet normal -0.000675 1.000000 0.000452
outer loop
vertex 0.285079 0.552045 -0.117966
vertex 0.205193 0.552015 -0.169669
vertex 0.222452 0.552017 -0.148638
endloop
endfacet
facet normal -0.000791 1.000000 0.000415
outer loop
vertex 0.205193 0.552015 -0.169669
vertex 0.218095 0.552045 -0.218214
vertex 0.197856 0.552013 -0.178608
endloop
endfacet
facet normal -0.000331 1.000000 0.000797
outer loop
vertex 0.148638 0.552026 -0.222452
vertex 0.161216 0.552022 -0.212130
vertex 0.218095 0.552045 -0.218214
endloop
endfacet
facet normal -0.000364 1.000000 0.000798
outer loop
vertex -0.000404 0.552045 -0.308720
vertex -0.000404 0.552013 -0.267501
vertex 0.000000 0.552013 -0.267541
endloop
endfacet
facet normal -0.000330 1.000000 0.000795
outer loop
vertex -0.000404 0.552045 -0.308720
vertex 0.000000 0.552013 -0.267541
vertex 0.052195 0.552026 -0.262400
endloop
endfacet
facet normal -0.000331 1.000000 0.000801
outer loop
vertex 0.148638 0.552026 -0.222452
vertex 0.218095 0.552045 -0.218214
vertex -0.000404 0.552045 -0.308720
endloop
endfacet
facet normal -0.000332 1.000000 0.000799
outer loop
vertex -0.000404 0.552045 -0.308720
vertex 0.052195 0.552026 -0.262400
vertex 0.102384 0.552030 -0.247176
endloop
endfacet
facet normal -0.000325 1.000000 0.000744
outer loop
vertex -0.000404 0.552045 -0.308720
vertex 0.102384 0.552030 -0.247176
vertex 0.148638 0.552026 -0.222452
endloop
endfacet
facet normal -0.000200 0.999998 0.001946
outer loop
vertex 0.163755 0.552018 -0.210046
vertex 0.218095 0.552045 -0.218214
vertex 0.161216 0.552022 -0.212130
endloop
endfacet
facet normal -0.000620 1.000000 0.000508
outer loop
vertex 0.197856 0.552013 -0.178608
vertex 0.218095 0.552045 -0.218214
vertex 0.189180 0.552013 -0.189180
endloop
endfacet
facet normal -0.000509 1.000000 0.000434
outer loop
vertex 0.218095 0.552045 -0.218214
vertex 0.189115 0.552013 -0.189234
vertex 0.189180 0.552013 -0.189180
endloop
endfacet
facet normal -0.000509 1.000000 0.000617
outer loop
vertex 0.189115 0.552013 -0.189234
vertex 0.218095 0.552045 -0.218214
vertex 0.178473 0.552013 -0.197967
endloop
endfacet
facet normal -0.000336 0.999999 0.001125
outer loop
vertex 0.169530 0.552015 -0.205307
vertex 0.218095 0.552045 -0.218214
vertex 0.163755 0.552018 -0.210046
endloop
endfacet
facet normal -0.000422 1.000000 0.000797
outer loop
vertex 0.178473 0.552013 -0.197967
vertex 0.218095 0.552045 -0.218214
vertex 0.169530 0.552015 -0.205307
endloop
endfacet
facet normal 0.000233 1.000000 0.000772
outer loop
vertex -0.052630 0.552012 -0.262268
vertex -0.060688 0.552045 -0.302782
vertex -0.118656 0.552045 -0.285198
endloop
endfacet
facet normal 0.000233 1.000000 0.000763
outer loop
vertex -0.052630 0.552012 -0.262268
vertex -0.118656 0.552045 -0.285198
vertex -0.089570 0.552012 -0.251063
endloop
endfacet
facet normal 0.000000 1.000000 0.000000
outer loop
vertex -0.218904 0.552045 -0.218214
vertex -0.118656 0.552045 -0.285198
vertex -0.172079 0.552045 -0.256643
endloop
endfacet
facet normal 0.000582 1.000000 0.000476
outer loop
vertex -0.189180 0.552014 -0.189180
vertex -0.178783 0.552012 -0.197713
vertex -0.218904 0.552045 -0.218214
endloop
endfacet
facet normal 0.000582 1.000000 0.000477
outer loop
vertex -0.218904 0.552045 -0.218214
vertex -0.257333 0.552045 -0.171389
vertex -0.206434 0.552014 -0.168156
endloop
endfacet
facet normal 0.000582 1.000000 0.000478
outer loop
vertex -0.218904 0.552045 -0.218214
vertex -0.206434 0.552014 -0.168156
vertex -0.189180 0.552014 -0.189180
endloop
endfacet
facet normal 0.000233 1.000000 0.000758
outer loop
vertex -0.102384 0.552012 -0.247176
vertex -0.089570 0.552012 -0.251063
vertex -0.118656 0.552045 -0.285198
endloop
endfacet
facet normal 0.000264 1.000000 0.000745
outer loop
vertex -0.102384 0.552012 -0.247176
vertex -0.118656 0.552045 -0.285198
vertex -0.102811 0.552012 -0.246947
endloop
endfacet
facet normal 0.000421 1.000000 0.000785
outer loop
vertex -0.178783 0.552012 -0.197713
vertex -0.169728 0.552014 -0.205145
vertex -0.218904 0.552045 -0.218214
endloop
endfacet
facet normal 0.000451 1.000000 0.000674
outer loop
vertex -0.148638 0.552016 -0.222452
vertex -0.102811 0.552012 -0.246947
vertex -0.118656 0.552045 -0.285198
endloop
endfacet
facet normal 0.000452 1.000000 0.000678
outer loop
vertex -0.118656 0.552045 -0.285198
vertex -0.218904 0.552045 -0.218214
vertex -0.169728 0.552014 -0.205145
endloop
endfacet
facet normal 0.000455 1.000000 0.000676
outer loop
vertex -0.118656 0.552045 -0.285198
vertex -0.169728 0.552014 -0.205145
vertex -0.148638 0.552016 -0.222452
endloop
endfacet
facet normal -0.098099 0.000000 -0.995177
outer loop
vertex 0.052195 0.552045 0.262400
vertex 0.052195 -0.552045 0.262400
vertex 0.051742 -0.552045 0.262445
endloop
endfacet
facet normal -0.098017 0.000000 -0.995185
outer loop
vertex 0.037800 -0.552045 0.263818
vertex 0.000000 -0.552045 0.267541
vertex 0.000000 0.552045 0.267541
endloop
endfacet
facet normal -0.098013 0.000000 -0.995185
outer loop
vertex 0.052195 0.552045 0.262400
vertex 0.051742 -0.552045 0.262445
vertex 0.037800 -0.552045 0.263818
endloop
endfacet
facet normal -0.098019 0.000000 -0.995185
outer loop
vertex 0.037800 -0.552045 0.263818
vertex 0.000000 0.552045 0.267541
vertex 0.052195 0.552045 0.262400
endloop
endfacet
facet normal -0.290297 0.000000 -0.956936
outer loop
vertex 0.102384 0.552045 0.247176
vertex 0.102384 -0.552045 0.247176
vertex 0.101919 -0.552045 0.247317
endloop
endfacet
facet normal -0.290284 0.000000 -0.956941
outer loop
vertex 0.088541 -0.552045 0.251375
vertex 0.052195 -0.552045 0.262400
vertex 0.052195 0.552045 0.262400
endloop
endfacet
facet normal -0.290285 -0.000000 -0.956940
outer loop
vertex 0.102384 0.552045 0.247176
vertex 0.101919 -0.552045 0.247317
vertex 0.088541 -0.552045 0.251375
endloop
endfacet
facet normal -0.290285 0.000000 -0.956940
outer loop
vertex 0.088541 -0.552045 0.251375
vertex 0.052195 0.552045 0.262400
vertex 0.102384 0.552045 0.247176
endloop
endfacet
facet normal -0.471415 0.000000 -0.881911
outer loop
vertex 0.148638 0.552045 0.222452
vertex 0.148638 -0.552045 0.222452
vertex 0.148199 -0.552045 0.222687
endloop
endfacet
facet normal -0.471396 0.000000 -0.881921
outer loop
vertex 0.135898 -0.552045 0.229262
vertex 0.102384 -0.552045 0.247176
vertex 0.102384 0.552045 0.247176
endloop
endfacet
facet normal -0.471398 0.000000 -0.881921
outer loop
vertex 0.148638 0.552045 0.222452
vertex 0.148199 -0.552045 0.222687
vertex 0.135898 -0.552045 0.229262
endloop
endfacet
facet normal -0.471396 0.000000 -0.881922
outer loop
vertex 0.135898 -0.552045 0.229262
vertex 0.102384 0.552045 0.247176
vertex 0.148638 0.552045 0.222452
endloop
endfacet
facet normal -0.634394 0.000000 -0.773010
outer loop
vertex 0.189180 0.552039 0.189180
vertex 0.189180 -0.552045 0.189180
vertex 0.188801 -0.552045 0.189491
endloop
endfacet
facet normal -0.634393 0.000000 -0.773011
outer loop
vertex 0.178045 -0.552045 0.198319
vertex 0.148638 -0.552045 0.222452
vertex 0.148638 0.552045 0.222452
endloop
endfacet
facet normal -0.634393 0.000000 -0.773011
outer loop
vertex 0.189180 0.552039 0.189180
vertex 0.188801 -0.552045 0.189491
vertex 0.178045 -0.552045 0.198319
endloop
endfacet
facet normal -0.628321 -0.000415 -0.777954
outer loop
vertex 0.148638 0.552045 0.222452
vertex 0.182980 0.552045 0.194268
vertex 0.189180 0.552039 0.189180
endloop
endfacet
facet normal -0.634394 0.000000 -0.773010
outer loop
vertex 0.178045 -0.552045 0.198319
vertex 0.148638 0.552045 0.222452
vertex 0.189180 0.552039 0.189180
endloop
endfacet
facet normal -0.772982 0.000000 -0.634428
outer loop
vertex 0.222158 0.552012 0.148997
vertex 0.222452 0.552013 0.148638
vertex 0.222452 -0.552045 0.148638
endloop
endfacet
facet normal 0.000000 -1.000000 0.000000
outer loop
vertex 0.222158 -0.552045 0.148997
vertex 0.213351 -0.552045 0.159729
vertex 0.189180 -0.552045 0.189180
endloop
endfacet
facet normal -0.773045 -0.000000 -0.634351
outer loop
vertex 0.222158 0.552012 0.148997
vertex 0.222452 -0.552045 0.148638
vertex 0.222158 -0.552045 0.148997
endloop
endfacet
facet normal -0.773010 0.000000 -0.634394
outer loop
vertex 0.213351 0.552012 0.159729
vertex 0.222158 0.552012 0.148997
vertex 0.222158 -0.552045 0.148997
endloop
endfacet
facet normal -0.773011 0.000000 -0.634393
outer loop
vertex 0.222158 -0.552045 0.148997
vertex 0.189180 -0.552045 0.189180
vertex 0.189180 0.552039 0.189180
endloop
endfacet
facet normal -0.773009 0.000000 -0.634394
outer loop
vertex 0.222158 -0.552045 0.148997
vertex 0.189180 0.552039 0.189180
vertex 0.201170 0.552018 0.174571
endloop
endfacet
facet normal -0.773012 -0.000000 -0.634391
outer loop
vertex 0.205949 0.552014 0.168747
vertex 0.213351 0.552012 0.159729
vertex 0.222158 -0.552045 0.148997
endloop
endfacet
facet normal -0.773009 -0.000000 -0.634395
outer loop
vertex 0.222158 -0.552045 0.148997
vertex 0.201170 0.552018 0.174571
vertex 0.205949 0.552014 0.168747
endloop
endfacet
facet normal 0.000000 0.000000 0.000000
outer loop
vertex 0.247176 -0.552045 0.102384
vertex 0.246978 -0.552045 0.102754
vertex 0.240448 -0.552045 0.114971
endloop
endfacet
facet normal -0.881921 0.000000 -0.471397
outer loop
vertex 0.240448 -0.552045 0.114971
vertex 0.222452 -0.552045 0.148638
vertex 0.222452 0.552013 0.148638
endloop
endfacet
facet normal -0.881921 0.000000 -0.471397
outer loop
vertex 0.240448 0.552013 0.114971
vertex 0.247176 0.552015 0.102384
vertex 0.247176 -0.552045 0.102384
endloop
endfacet
facet normal -0.881921 0.000000 -0.471396
outer loop
vertex 0.240448 -0.552045 0.114971
vertex 0.222452 0.552013 0.148638
vertex 0.240448 0.552013 0.114971
endloop
endfacet
facet normal -0.881921 -0.000000 -0.471397
outer loop
vertex 0.240448 -0.552045 0.114971
vertex 0.240448 0.552013 0.114971
vertex 0.247176 -0.552045 0.102384
endloop
endfacet
facet normal 0.000000 -1.000000 0.000000
outer loop
vertex 0.262400 -0.552045 0.052195
vertex 0.262296 -0.552045 0.052540
vertex 0.258283 -0.552045 0.065769
endloop
endfacet
facet normal -0.956940 0.000000 -0.290284
outer loop
vertex 0.258283 -0.552045 0.065769
vertex 0.247176 -0.552045 0.102384
vertex 0.247176 0.552015 0.102384
endloop
endfacet
facet normal -0.956941 0.000000 -0.290284
outer loop
vertex 0.254910 0.552015 0.076887
vertex 0.262400 0.552019 0.052195
vertex 0.262400 -0.552045 0.052195
endloop
endfacet
facet normal -0.956940 0.000000 -0.290285
outer loop
vertex 0.258283 -0.552045 0.065769
vertex 0.247176 0.552015 0.102384
vertex 0.254910 0.552015 0.076887
endloop
endfacet
facet normal -0.956940 0.000000 -0.290284
outer loop
vertex 0.258283 -0.552045 0.065769
vertex 0.254910 0.552015 0.076887
vertex 0.262400 -0.552045 0.052195
endloop
endfacet
facet normal 0.000000 0.000000 0.000000
outer loop
vertex 0.267541 -0.552045 0.000000
vertex 0.267513 -0.552045 0.000285
vertex 0.266160 -0.552045 0.014020
endloop
endfacet
facet normal -0.995185 0.000000 -0.098017
outer loop
vertex 0.266160 -0.552045 0.014020
vertex 0.262400 -0.552045 0.052195
vertex 0.262400 0.552019 0.052195
endloop
endfacet
facet normal -0.995185 0.000000 -0.098018
outer loop
vertex 0.262400 0.552019 0.052195
vertex 0.267541 0.552023 0.000000
vertex 0.267541 -0.552045 0.000000
endloop
endfacet
facet normal -0.995185 0.000000 -0.098018
outer loop
vertex 0.266160 -0.552045 0.014020
vertex 0.262400 0.552019 0.052195
vertex 0.267541 -0.552045 0.000000
endloop
endfacet
facet normal 0.000000 0.988829 0.149051
outer loop
vertex 0.263771 0.552013 -0.038278
vertex 0.262420 0.552013 -0.051994
vertex 0.262400 0.552013 -0.052195
endloop
endfacet
facet normal -0.995179 0.000000 0.098079
outer loop
vertex 0.262400 0.552013 -0.052195
vertex 0.262400 -0.552045 -0.052195
vertex 0.262420 -0.552045 -0.051994
endloop
endfacet
facet normal -0.995185 0.000000 0.098017
outer loop
vertex 0.263771 -0.552045 -0.038278
vertex 0.267541 -0.552045 0.000000
vertex 0.267541 0.552023 0.000000
endloop
endfacet
facet normal -0.995185 -0.000000 0.098017
outer loop
vertex 0.262400 0.552013 -0.052195
vertex 0.262420 -0.552045 -0.051994
vertex 0.263771 -0.552045 -0.038278
endloop
endfacet
facet normal -0.995185 -0.000000 0.098018
outer loop
vertex 0.263771 0.552013 -0.038278
vertex 0.262400 0.552013 -0.052195
vertex 0.263771 -0.552045 -0.038278
endloop
endfacet
facet normal -0.995185 -0.000000 0.098017
outer loop
vertex 0.263771 -0.552045 -0.038278
vertex 0.267541 0.552023 0.000000
vertex 0.265962 0.552022 -0.016035
endloop
endfacet
facet normal -0.995185 -0.000000 0.098018
outer loop
vertex 0.263771 -0.552045 -0.038278
vertex 0.265962 0.552022 -0.016035
vertex 0.265640 0.552018 -0.019308
endloop
endfacet
facet normal -0.995185 -0.000000 0.098018
outer loop
vertex 0.264906 0.552015 -0.026751
vertex 0.263771 0.552013 -0.038278
vertex 0.263771 -0.552045 -0.038278
endloop
endfacet
facet normal -0.995185 0.000000 0.098018
outer loop
vertex 0.263771 -0.552045 -0.038278
vertex 0.265640 0.552018 -0.019308
vertex 0.264906 0.552015 -0.026751
endloop
endfacet
facet normal 0.000000 -0.943156 -0.332350
outer loop
vertex 0.258462 0.552013 -0.065178
vertex 0.247208 0.552013 -0.102279
vertex 0.247176 0.552013 -0.102384
endloop
endfacet
facet normal -0.956946 0.000000 0.290264
outer loop
vertex 0.247176 0.552013 -0.102384
vertex 0.247176 -0.552045 -0.102384
vertex 0.247208 -0.552045 -0.102279
endloop
endfacet
facet normal -0.956940 0.000000 0.290284
outer loop
vertex 0.251204 -0.552045 -0.089103
vertex 0.262400 -0.552045 -0.052195
vertex 0.262400 0.552013 -0.052195
endloop
endfacet
facet normal -0.956940 0.000000 0.290285
outer loop
vertex 0.247176 0.552013 -0.102384
vertex 0.247208 -0.552045 -0.102279
vertex 0.251204 -0.552045 -0.089103
endloop
endfacet
facet normal -0.956940 0.000000 0.290284
outer loop
vertex 0.251204 -0.552045 -0.089103
vertex 0.262400 0.552013 -0.052195
vertex 0.258462 0.552013 -0.065178
endloop
endfacet
facet normal -0.956940 -0.000000 0.290285
outer loop
vertex 0.247176 0.552013 -0.102384
vertex 0.251204 -0.552045 -0.089103
vertex 0.258462 0.552013 -0.065178
endloop
endfacet
facet normal 0.000000 0.707107 -0.707107
outer loop
vertex 0.222452 -0.552045 -0.148638
vertex 0.222458 -0.552045 -0.148627
vertex 0.228946 -0.552045 -0.136490
endloop
endfacet
facet normal -0.881921 0.000000 0.471397
outer loop
vertex 0.228946 -0.552045 -0.136490
vertex 0.247176 -0.552045 -0.102384
vertex 0.247176 0.552013 -0.102384
endloop
endfacet
facet normal -0.881921 0.000000 0.471397
outer loop
vertex 0.247176 0.552013 -0.102384
vertex 0.222452 0.552017 -0.148638
vertex 0.222452 -0.552045 -0.148638
endloop
endfacet
facet normal -0.881922 0.000000 0.471396
outer loop
vertex 0.228946 -0.552045 -0.136490
vertex 0.247176 0.552013 -0.102384
vertex 0.222452 -0.552045 -0.148638
endloop
endfacet
facet normal -0.773011 0.000000 0.634393
outer loop
vertex 0.197856 0.552013 -0.178608
vertex 0.189180 0.552013 -0.189180
vertex 0.189180 -0.552045 -0.189180
endloop
endfacet
facet normal -0.773010 0.000000 0.634394
outer loop
vertex 0.197856 -0.552045 -0.178608
vertex 0.222452 -0.552045 -0.148638
vertex 0.222452 0.552017 -0.148638
endloop
endfacet
facet normal -0.773010 -0.000000 0.634394
outer loop
vertex 0.197856 0.552013 -0.178608
vertex 0.189180 -0.552045 -0.189180
vertex 0.197856 -0.552045 -0.178608
endloop
endfacet
facet normal -0.806853 -0.016403 0.590524
outer loop
vertex 0.222452 0.552017 -0.148638
vertex 0.205193 0.552015 -0.169669
vertex 0.197856 0.552013 -0.178608
endloop
endfacet
facet normal -0.773010 0.000000 0.634393
outer loop
vertex 0.197856 -0.552045 -0.178608
vertex 0.222452 0.552017 -0.148638
vertex 0.197856 0.552013 -0.178608
endloop
endfacet
facet normal 0.000000 -1.000000 0.000000
outer loop
vertex 0.148638 -0.552045 -0.222452
vertex 0.159142 -0.552045 -0.213832
vertex 0.189115 -0.552045 -0.189234
endloop
endfacet
facet normal -0.634305 0.000000 0.773083
outer loop
vertex 0.189115 -0.552045 -0.189234
vertex 0.189180 -0.552045 -0.189180
vertex 0.189180 0.552013 -0.189180
endloop
endfacet
facet normal 0.000000 -1.000000 0.000000
outer loop
vertex 0.189180 0.552013 -0.189180
vertex 0.189115 0.552013 -0.189234
vertex 0.178473 0.552013 -0.197967
endloop
endfacet
facet normal -0.634394 0.000000 0.773010
outer loop
vertex 0.148638 -0.552045 -0.222452
vertex 0.189115 -0.552045 -0.189234
vertex 0.189180 0.552013 -0.189180
endloop
endfacet
facet normal -0.634394 0.000000 0.773010
outer loop
vertex 0.161216 0.552022 -0.212130
vertex 0.148638 0.552026 -0.222452
vertex 0.148638 -0.552045 -0.222452
endloop
endfacet
facet normal -0.634389 0.000000 0.773014
outer loop
vertex 0.163755 0.552018 -0.210046
vertex 0.161216 0.552022 -0.212130
vertex 0.148638 -0.552045 -0.222452
endloop
endfacet
facet normal -0.634393 -0.000000 0.773011
outer loop
vertex 0.148638 -0.552045 -0.222452
vertex 0.189180 0.552013 -0.189180
vertex 0.178473 0.552013 -0.197967
endloop
endfacet
facet normal -0.634392 0.000000 0.773011
outer loop
vertex 0.169530 0.552015 -0.205307
vertex 0.163755 0.552018 -0.210046
vertex 0.148638 -0.552045 -0.222452
endloop
endfacet
facet normal -0.634396 -0.000000 0.773008
outer loop
vertex 0.178473 0.552013 -0.197967
vertex 0.169530 0.552015 -0.205307
vertex 0.148638 -0.552045 -0.222452
endloop
endfacet
facet normal -0.471397 0.000000 0.881921
outer loop
vertex 0.148638 0.552026 -0.222452
vertex 0.102384 0.552030 -0.247176
vertex 0.102384 -0.552045 -0.247176
endloop
endfacet
facet normal 0.000000 0.438769 0.898600
outer loop
vertex 0.114301 -0.552045 -0.240806
vertex 0.148480 -0.552045 -0.222537
vertex 0.148638 -0.552045 -0.222452
endloop
endfacet
facet normal -0.471396 0.000000 0.881922
outer loop
vertex 0.148638 0.552026 -0.222452
vertex 0.102384 -0.552045 -0.247176
vertex 0.114301 -0.552045 -0.240806
endloop
endfacet
facet normal -0.471397 0.000000 0.881921
outer loop
vertex 0.114301 -0.552045 -0.240806
vertex 0.148638 -0.552045 -0.222452
vertex 0.148638 0.552026 -0.222452
endloop
endfacet
facet normal -0.290284 0.000000 0.956940
outer loop
vertex 0.102384 0.552030 -0.247176
vertex 0.052195 0.552026 -0.262400
vertex 0.052195 -0.552045 -0.262400
endloop
endfacet
facet normal 0.000000 0.278683 -0.960383
outer loop
vertex 0.065069 -0.552045 -0.258495
vertex 0.102129 -0.552045 -0.247253
vertex 0.102384 -0.552045 -0.247176
endloop
endfacet
facet normal -0.290283 0.000000 0.956941
outer loop
vertex 0.102384 0.552030 -0.247176
vertex 0.052195 -0.552045 -0.262400
vertex 0.065069 -0.552045 -0.258495
endloop
endfacet
facet normal -0.290284 0.000000 0.956940
outer loop
vertex 0.065069 -0.552045 -0.258495
vertex 0.102384 -0.552045 -0.247176
vertex 0.102384 0.552030 -0.247176
endloop
endfacet
facet normal -0.098017 0.000000 0.995185
outer loop
vertex 0.052195 0.552026 -0.262400
vertex 0.000000 0.552013 -0.267541
vertex 0.000000 -0.552045 -0.267541
endloop
endfacet
facet normal 0.000000 0.323757 -0.946140
outer loop
vertex 0.013347 -0.552045 -0.266227
vertex 0.051854 -0.552045 -0.262434
vertex 0.052195 -0.552045 -0.262400
endloop
endfacet
facet normal -0.098022 -0.000000 0.995184
outer loop
vertex 0.052195 0.552026 -0.262400
vertex 0.000000 -0.552045 -0.267541
vertex 0.013347 -0.552045 -0.266227
endloop
endfacet
facet normal -0.098017 0.000000 0.995185
outer loop
vertex 0.013347 -0.552045 -0.266227
vertex 0.052195 -0.552045 -0.262400
vertex 0.052195 0.552026 -0.262400
endloop
endfacet
facet normal 0.098017 0.000000 0.995185
outer loop
vertex -0.014183 0.552013 -0.266144
vertex -0.052195 0.552013 -0.262400
vertex -0.052195 -0.552045 -0.262400
endloop
endfacet
facet normal 0.000000 0.098299 -0.995157
outer loop
vertex -0.038868 -0.552045 -0.263713
vertex -0.000404 -0.552045 -0.267501
vertex 0.000000 -0.552045 -0.267541
endloop
endfacet
facet normal 0.098022 0.000000 0.995184
outer loop
vertex -0.014183 0.552013 -0.266144
vertex -0.052195 -0.552045 -0.262400
vertex -0.038868 -0.552045 -0.263713
endloop
endfacet
facet normal 0.098075 0.000000 0.995179
outer loop
vertex 0.000000 -0.552045 -0.267541
vertex 0.000000 0.552013 -0.267541
vertex -0.000404 0.552013 -0.267501
endloop
endfacet
facet normal 0.098017 0.000000 0.995185
outer loop
vertex -0.000404 0.552013 -0.267501
vertex -0.014183 0.552013 -0.266144
vertex -0.038868 -0.552045 -0.263713
endloop
endfacet
facet normal 0.098016 -0.000000 0.995185
outer loop
vertex -0.038868 -0.552045 -0.263713
vertex 0.000000 -0.552045 -0.267541
vertex -0.000404 0.552013 -0.267501
endloop
endfacet
facet normal 0.290283 0.000000 0.956941
outer loop
vertex -0.089570 0.552012 -0.251063
vertex -0.102384 0.552012 -0.247176
vertex -0.102384 -0.552045 -0.247176
endloop
endfacet
facet normal 0.000000 -0.927670 -0.373402
outer loop
vertex -0.089570 -0.552045 -0.251063
vertex -0.052630 -0.552045 -0.262269
vertex -0.052195 -0.552045 -0.262400
endloop
endfacet
facet normal 0.290286 0.000000 0.956940
outer loop
vertex -0.089570 0.552012 -0.251063
vertex -0.102384 -0.552045 -0.247176
vertex -0.089570 -0.552045 -0.251063
endloop
endfacet
facet normal 0.290323 0.000000 0.956929
outer loop
vertex -0.052195 -0.552045 -0.262400
vertex -0.052195 0.552013 -0.262400
vertex -0.052630 0.552012 -0.262268
endloop
endfacet
facet normal 0.290284 0.000000 0.956941
outer loop
vertex -0.052630 0.552012 -0.262268
vertex -0.089570 0.552012 -0.251063
vertex -0.089570 -0.552045 -0.251063
endloop
endfacet
facet normal 0.290284 -0.000000 0.956941
outer loop
vertex -0.089570 -0.552045 -0.251063
vertex -0.052195 -0.552045 -0.262400
vertex -0.052630 0.552012 -0.262268
endloop
endfacet
facet normal 0.471397 0.000000 0.881921
outer loop
vertex -0.102811 0.552012 -0.246947
vertex -0.148638 0.552016 -0.222452
vertex -0.148638 -0.552045 -0.222452
endloop
endfacet
facet normal 0.000000 0.282166 -0.959365
outer loop
vertex -0.136811 -0.552045 -0.228774
vertex -0.102811 -0.552045 -0.246947
vertex -0.102384 -0.552045 -0.247176
endloop
endfacet
facet normal 0.471397 -0.000000 0.881921
outer loop
vertex -0.102811 0.552012 -0.246947
vertex -0.148638 -0.552045 -0.222452
vertex -0.136811 -0.552045 -0.228774
endloop
endfacet
facet normal 0.471393 0.000000 0.881923
outer loop
vertex -0.102384 -0.552045 -0.247176
vertex -0.102384 0.552012 -0.247176
vertex -0.102811 0.552012 -0.246947
endloop
endfacet
facet normal 0.471397 0.000000 0.881921
outer loop
vertex -0.136811 -0.552045 -0.228774
vertex -0.102384 -0.552045 -0.247176
vertex -0.102811 0.552012 -0.246947
endloop
endfacet
facet normal 0.634393 0.000000 0.773010
outer loop
vertex -0.178783 0.552012 -0.197713
vertex -0.189180 0.552014 -0.189180
vertex -0.189180 -0.552045 -0.189180
endloop
endfacet
facet normal 0.000000 -0.234054 0.972224
outer loop
vertex -0.178783 -0.552045 -0.197713
vertex -0.149022 -0.552045 -0.222137
vertex -0.148638 -0.552045 -0.222452
endloop
endfacet
facet normal 0.634394 0.000000 0.773010
outer loop
vertex -0.178783 0.552012 -0.197713
vertex -0.189180 -0.552045 -0.189180
vertex -0.178783 -0.552045 -0.197713
endloop
endfacet
facet normal 0.611494 -0.021187 0.790966
outer loop
vertex -0.148638 0.552016 -0.222452
vertex -0.169728 0.552014 -0.205145
vertex -0.178783 0.552012 -0.197713
endloop
endfacet
facet normal 0.634394 0.000000 0.773010
outer loop
vertex -0.178783 -0.552045 -0.197713
vertex -0.148638 -0.552045 -0.222452
vertex -0.148638 0.552016 -0.222452
endloop
endfacet
facet normal 0.634392 0.000000 0.773011
outer loop
vertex -0.178783 -0.552045 -0.197713
vertex -0.148638 0.552016 -0.222452
vertex -0.178783 0.552012 -0.197713
endloop
endfacet
facet normal 0.773010 0.000000 0.634393
outer loop
vertex -0.222452 0.552018 -0.148638
vertex -0.222452 -0.552045 -0.148638
vertex -0.213883 -0.552045 -0.159080
endloop
endfacet
facet normal 0.772977 0.000000 0.634434
outer loop
vertex -0.189491 -0.552045 -0.188801
vertex -0.189180 -0.552045 -0.189180
vertex -0.189180 0.552014 -0.189180
endloop
endfacet
facet normal 0.773010 -0.000000 0.634393
outer loop
vertex -0.222452 0.552018 -0.148638
vertex -0.213883 -0.552045 -0.159080
vertex -0.189491 -0.552045 -0.188801
endloop
endfacet
facet normal 0.773011 -0.000000 0.634392
outer loop
vertex -0.189491 -0.552045 -0.188801
vertex -0.189180 0.552014 -0.189180
vertex -0.206434 0.552014 -0.168156
endloop
endfacet
facet normal 0.773010 0.000000 0.634394
outer loop
vertex -0.189491 -0.552045 -0.188801
vertex -0.206434 0.552014 -0.168156
vertex -0.222452 0.552018 -0.148638
endloop
endfacet
facet normal 0.000000 0.000000 0.000000
outer loop
vertex -0.247176 -0.552045 -0.102384
vertex -0.240773 -0.552045 -0.114362
vertex -0.222671 -0.552045 -0.148229
endloop
endfacet
facet normal 0.881918 0.000000 0.471402
outer loop
vertex -0.222671 -0.552045 -0.148229
vertex -0.222452 -0.552045 -0.148638
vertex -0.222452 0.552018 -0.148638
endloop
endfacet
facet normal 0.887914 0.000000 0.460010
outer loop
vertex -0.222452 0.552018 -0.148638
vertex -0.231644 0.552018 -0.131442
vertex -0.235226 0.552014 -0.124740
endloop
endfacet
facet normal 0.881921 0.000000 0.471397
outer loop
vertex -0.240773 0.552012 -0.114362
vertex -0.247176 0.552012 -0.102384
vertex -0.247176 -0.552045 -0.102384
endloop
endfacet
facet normal 0.799988 0.084855 0.593986
outer loop
vertex -0.222452 0.552018 -0.148638
vertex -0.235226 0.552014 -0.124740
vertex -0.240773 0.552012 -0.114362
endloop
endfacet
facet normal 0.881921 0.000000 0.471397
outer loop
vertex -0.247176 -0.552045 -0.102384
vertex -0.222671 -0.552045 -0.148229
vertex -0.222452 0.552018 -0.148638
endloop
endfacet
facet normal 0.881921 -0.000000 0.471396
outer loop
vertex -0.222452 0.552018 -0.148638
vertex -0.240773 0.552012 -0.114362
vertex -0.247176 -0.552045 -0.102384
endloop
endfacet
facet normal 0.956940 0.000000 0.290285
outer loop
vertex -0.262400 0.552023 -0.052195
vertex -0.262400 -0.552045 -0.052195
vertex -0.258432 -0.552045 -0.065276
endloop
endfacet
facet normal 0.956938 0.000000 0.290293
outer loop
vertex -0.247298 -0.552045 -0.101981
vertex -0.247176 -0.552045 -0.102384
vertex -0.247176 0.552012 -0.102384
endloop
endfacet
facet normal 0.956940 -0.000000 0.290284
outer loop
vertex -0.262400 0.552023 -0.052195
vertex -0.258432 -0.552045 -0.065276
vertex -0.247298 -0.552045 -0.101981
endloop
endfacet
facet normal 0.961033 0.000000 0.276433
outer loop
vertex -0.254793 0.552014 -0.077272
vertex -0.257003 0.552018 -0.069986
vertex -0.262400 0.552023 -0.052195
endloop
endfacet
facet normal 0.956940 0.000000 0.290285
outer loop
vertex -0.254793 0.552014 -0.077272
vertex -0.262400 0.552023 -0.052195
vertex -0.247298 -0.552045 -0.101981
endloop
endfacet
facet normal 0.956944 0.000000 0.290274
outer loop
vertex -0.247298 -0.552045 -0.101981
vertex -0.247176 0.552012 -0.102384
vertex -0.247298 0.552012 -0.101981
endloop
endfacet
facet normal 0.956941 0.000000 0.290284
outer loop
vertex -0.251371 0.552012 -0.088555
vertex -0.254793 0.552014 -0.077272
vertex -0.247298 -0.552045 -0.101981
endloop
endfacet
facet normal 0.956941 0.000000 0.290284
outer loop
vertex -0.247298 -0.552045 -0.101981
vertex -0.247298 0.552012 -0.101981
vertex -0.251371 0.552012 -0.088555
endloop
endfacet
facet normal 0.995185 0.000000 0.098019
outer loop
vertex -0.267541 0.552028 0.000000
vertex -0.267541 -0.552045 0.000000
vertex -0.266192 -0.552045 -0.013701
endloop
endfacet
facet normal 0.995186 0.000000 0.098001
outer loop
vertex -0.262436 -0.552045 -0.051836
vertex -0.262400 -0.552045 -0.052195
vertex -0.262400 0.552023 -0.052195
endloop
endfacet
facet normal 0.995185 0.000000 0.098017
outer loop
vertex -0.267541 0.552028 0.000000
vertex -0.266192 -0.552045 -0.013701
vertex -0.262436 -0.552045 -0.051836
endloop
endfacet
facet normal 0.995185 0.000000 0.098018
outer loop
vertex -0.262436 -0.552045 -0.051836
vertex -0.262400 0.552023 -0.052195
vertex -0.267541 0.552028 0.000000
endloop
endfacet
facet normal 0.995185 0.000000 -0.098016
outer loop
vertex -0.262400 0.552023 0.052195
vertex -0.262400 -0.552045 0.052195
vertex -0.263760 -0.552045 0.038390
endloop
endfacet
facet normal 0.995190 0.000000 -0.097967
outer loop
vertex -0.267513 -0.552045 0.000285
vertex -0.267541 -0.552045 0.000000
vertex -0.267541 0.552028 0.000000
endloop
endfacet
facet normal 0.995185 0.000000 -0.098018
outer loop
vertex -0.262400 0.552023 0.052195
vertex -0.263760 -0.552045 0.038390
vertex -0.267513 -0.552045 0.000285
endloop
endfacet
facet normal 0.995185 0.000000 -0.098018
outer loop
vertex -0.267513 -0.552045 0.000285
vertex -0.267541 0.552028 0.000000
vertex -0.262400 0.552023 0.052195
endloop
endfacet
facet normal 0.000000 0.000000 1.000000
outer loop
vertex -0.247176 -0.552045 0.102384
vertex -0.251233 -0.552045 0.089008
vertex -0.262342 -0.552045 0.052388
endloop
endfacet
facet normal 0.956950 0.000000 -0.290252
outer loop
vertex -0.262342 -0.552045 0.052388
vertex -0.262400 -0.552045 0.052195
vertex -0.262400 0.552023 0.052195
endloop
endfacet
facet normal 0.956940 0.000000 -0.290284
outer loop
vertex -0.251233 0.552012 0.089008
vertex -0.247176 0.552012 0.102384
vertex -0.247176 -0.552045 0.102384
endloop
endfacet
facet normal 0.956940 -0.000000 -0.290284
outer loop
vertex -0.262342 -0.552045 0.052388
vertex -0.262400 0.552023 0.052195
vertex -0.251233 0.552012 0.089008
endloop
endfacet
facet normal 0.956940 0.000000 -0.290285
outer loop
vertex -0.262342 -0.552045 0.052388
vertex -0.251233 0.552012 0.089008
vertex -0.247176 -0.552045 0.102384
endloop
endfacet
facet normal 0.881922 0.000000 -0.471396
outer loop
vertex -0.222452 0.552023 0.148638
vertex -0.222452 -0.552045 0.148638
vertex -0.229090 -0.552045 0.136220
endloop
endfacet
facet normal 0.881881 0.000000 -0.471472
outer loop
vertex -0.247124 -0.552045 0.102480
vertex -0.247176 -0.552045 0.102384
vertex -0.247176 0.552012 0.102384
endloop
endfacet
facet normal 0.881921 0.000000 -0.471396
outer loop
vertex -0.222452 0.552023 0.148638
vertex -0.229090 -0.552045 0.136220
vertex -0.247124 -0.552045 0.102480
endloop
endfacet
facet normal 0.880831 -0.019709 -0.473020
outer loop
vertex -0.234898 0.552014 0.125355
vertex -0.231292 0.552017 0.132099
vertex -0.222452 0.552023 0.148638
endloop
endfacet
facet normal 0.000000 1.000000 0.000000
outer loop
vertex -0.247176 0.552012 0.102384
vertex -0.247124 0.552012 0.102480
vertex -0.240481 0.552012 0.114909
endloop
endfacet
facet normal 0.881921 0.000000 -0.471397
outer loop
vertex -0.234898 0.552014 0.125355
vertex -0.222452 0.552023 0.148638
vertex -0.247124 -0.552045 0.102480
endloop
endfacet
facet normal 0.881922 0.000000 -0.471396
outer loop
vertex -0.247124 -0.552045 0.102480
vertex -0.247176 0.552012 0.102384
vertex -0.240481 0.552012 0.114909
endloop
endfacet
facet normal 0.881921 -0.000000 -0.471397
outer loop
vertex -0.247124 -0.552045 0.102480
vertex -0.240481 0.552012 0.114909
vertex -0.234898 0.552014 0.125355
endloop
endfacet
facet normal 0.772972 0.000000 -0.634440
outer loop
vertex -0.189180 0.552028 0.189180
vertex -0.189180 -0.552045 0.189180
vertex -0.189234 -0.552045 0.189115
endloop
endfacet
facet normal 0.000000 -0.549095 -0.835760
outer loop
vertex -0.198175 -0.552045 0.178220
vertex -0.222444 -0.552045 0.148648
vertex -0.222452 -0.552045 0.148638
endloop
endfacet
facet normal 0.773011 0.000000 -0.634393
outer loop
vertex -0.189180 0.552028 0.189180
vertex -0.189234 -0.552045 0.189115
vertex -0.198175 -0.552045 0.178220
endloop
endfacet
facet normal 0.773011 0.000000 -0.634393
outer loop
vertex -0.222452 -0.552045 0.148638
vertex -0.222452 0.552023 0.148638
vertex -0.189180 0.552028 0.189180
endloop
endfacet
facet normal 0.773010 0.000000 -0.634394
outer loop
vertex -0.198175 -0.552045 0.178220
vertex -0.222452 -0.552045 0.148638
vertex -0.189180 0.552028 0.189180
endloop
endfacet
facet normal 0.634387 0.000000 -0.773015
outer loop
vertex -0.148638 0.552023 0.222452
vertex -0.148638 -0.552045 0.222452
vertex -0.148776 -0.552045 0.222339
endloop
endfacet
facet normal 0.634394 0.000000 -0.773010
outer loop
vertex -0.159667 -0.552045 0.213401
vertex -0.189180 -0.552045 0.189180
vertex -0.189180 0.552028 0.189180
endloop
endfacet
facet normal 0.634393 0.000000 -0.773010
outer loop
vertex -0.148638 0.552023 0.222452
vertex -0.148776 -0.552045 0.222339
vertex -0.159667 -0.552045 0.213401
endloop
endfacet
facet normal 0.634393 0.000000 -0.773011
outer loop
vertex -0.159667 -0.552045 0.213401
vertex -0.189180 0.552028 0.189180
vertex -0.148638 0.552023 0.222452
endloop
endfacet
facet normal 0.471499 0.000000 -0.881867
outer loop
vertex -0.102384 0.552012 0.247176
vertex -0.102384 -0.552045 0.247176
vertex -0.102618 -0.552045 0.247051
endloop
endfacet
facet normal 0.471396 0.000000 -0.881921
outer loop
vertex -0.115033 -0.552045 0.240415
vertex -0.148638 -0.552045 0.222452
vertex -0.148638 0.552023 0.222452
endloop
endfacet
facet normal 0.471395 0.000000 -0.881922
outer loop
vertex -0.102384 0.552012 0.247176
vertex -0.102618 -0.552045 0.247051
vertex -0.115033 -0.552045 0.240415
endloop
endfacet
facet normal 0.000000 0.040146 0.999194
outer loop
vertex -0.115033 0.552012 0.240415
vertex -0.102618 0.552012 0.247051
vertex -0.102384 0.552012 0.247176
endloop
endfacet
facet normal 0.471396 0.000000 -0.881921
outer loop
vertex -0.115033 -0.552045 0.240415
vertex -0.148638 0.552023 0.222452
vertex -0.115033 0.552012 0.240415
endloop
endfacet
facet normal 0.471397 0.000000 -0.881921
outer loop
vertex -0.115033 -0.552045 0.240415
vertex -0.115033 0.552012 0.240415
vertex -0.102384 0.552012 0.247176
endloop
endfacet
facet normal 0.290293 0.000000 -0.956938
outer loop
vertex -0.052195 0.552039 0.262400
vertex -0.052195 -0.552045 0.262400
vertex -0.052523 -0.552045 0.262301
endloop
endfacet
facet normal 0.290283 0.000000 -0.956941
outer loop
vertex -0.065977 -0.552045 0.258220
vertex -0.102384 -0.552045 0.247176
vertex -0.102384 0.552012 0.247176
endloop
endfacet
facet normal 0.290286 -0.000000 -0.956940
outer loop
vertex -0.052195 0.552039 0.262400
vertex -0.052523 -0.552045 0.262301
vertex -0.065977 -0.552045 0.258220
endloop
endfacet
facet normal 0.775056 -0.631893 0.000000
outer loop
vertex -0.070576 0.552017 0.256824
vertex -0.067366 0.552021 0.257798
vertex -0.052195 0.552039 0.262400
endloop
endfacet
facet normal 0.290287 0.000000 -0.956940
outer loop
vertex -0.070576 0.552017 0.256824
vertex -0.052195 0.552039 0.262400
vertex -0.065977 -0.552045 0.258220
endloop
endfacet
facet normal 0.290290 -0.000000 -0.956939
outer loop
vertex -0.065977 -0.552045 0.258220
vertex -0.102384 0.552012 0.247176
vertex -0.089184 0.552012 0.251180
endloop
endfacet
facet normal 0.290278 0.000000 -0.956942
outer loop
vertex -0.077877 0.552014 0.254610
vertex -0.070576 0.552017 0.256824
vertex -0.065977 -0.552045 0.258220
endloop
endfacet
facet normal 0.290283 -0.000000 -0.956941
outer loop
vertex -0.065977 -0.552045 0.258220
vertex -0.089184 0.552012 0.251180
vertex -0.077877 0.552014 0.254610
endloop
endfacet
facet normal 0.098021 0.000000 -0.995184
outer loop
vertex 0.000000 0.552045 0.267541
vertex 0.000000 -0.552045 0.267541
vertex -0.000404 -0.552045 0.267501
endloop
endfacet
facet normal 0.098016 0.000000 -0.995185
outer loop
vertex -0.014374 -0.552045 0.266126
vertex -0.052195 -0.552045 0.262400
vertex -0.052195 0.552039 0.262400
endloop
endfacet
facet normal 0.098014 0.000000 -0.995185
outer loop
vertex 0.000000 0.552045 0.267541
vertex -0.000404 -0.552045 0.267501
vertex -0.014374 -0.552045 0.266126
endloop
endfacet
facet normal 0.097081 -0.001866 -0.995275
outer loop
vertex -0.052195 0.552039 0.262400
vertex -0.044213 0.552045 0.263187
vertex 0.000000 0.552045 0.267541
endloop
endfacet
facet normal 0.098019 0.000000 -0.995185
outer loop
vertex -0.014374 -0.552045 0.266126
vertex -0.052195 0.552039 0.262400
vertex 0.000000 0.552045 0.267541
endloop
endfacet
endsolid Exported from Blender-3.4.1
